<svg width="434" height="360" viewBox="0 0 434 360" fill="none" xmlns="http://www.w3.org/2000/svg">
<path d="M26.508 331.564H284.334C283.514 311.967 281.002 293.28 260.035 285.65C253.113 283.131 246.25 282.272 239.327 283.081C237.228 270.979 228.461 258.822 219.093 250.873C210.487 243.571 199.763 236.372 188.179 235.71C178.703 235.169 172.882 238.756 165.097 243.235C162.106 244.956 158.415 247.817 155.389 246.306C152.057 244.642 148.552 234.277 146.817 231.245C133.655 208.241 103.154 193.077 80.198 213.36C61.984 229.453 62.315 256.465 60.725 278.604C42.814 267.612 28.774 289.43 25.525 304.716C23.389 314.753 24.881 321.94 26.508 331.564Z" fill="#E2C4BA"/>
<path d="M407.737 331.564H180.778C181.5 314.314 183.711 297.863 202.168 291.147C208.261 288.93 214.302 288.174 220.397 288.885C222.245 278.232 229.962 267.53 238.209 260.533C245.785 254.105 255.225 247.768 265.422 247.186C273.764 246.71 278.888 249.867 285.741 253.81C288.374 255.325 291.623 257.843 294.286 256.513C297.219 255.048 300.305 245.924 301.832 243.255C313.418 223.005 340.268 209.657 360.476 227.511C376.51 241.677 376.218 265.455 377.617 284.944C393.384 275.268 405.743 294.474 408.603 307.93C410.482 316.766 409.169 323.092 407.737 331.564Z" fill="#EDD3CC"/>
<path d="M433.417 332.064H0.583008C0.307008 332.064 0.0830078 331.84 0.0830078 331.564C0.0830078 331.288 0.307008 331.064 0.583008 331.064H433.416C433.692 331.064 433.916 331.288 433.916 331.564C433.917 331.84 433.693 332.064 433.417 332.064Z" fill="#C69C91"/>
<path d="M330.822 359.151C368.998 359.151 399.946 355.109 399.946 350.122C399.946 345.135 368.998 341.093 330.822 341.093C292.646 341.093 261.698 345.135 261.698 350.122C261.698 355.109 292.646 359.151 330.822 359.151Z" fill="#C69C91"/>
<path d="M152.705 359.151C183.904 359.151 209.196 355.109 209.196 350.122C209.196 345.135 183.904 341.093 152.705 341.093C121.506 341.093 96.214 345.135 96.214 350.122C96.214 355.109 121.506 359.151 152.705 359.151Z" fill="#C69C91"/>
<path d="M320.569 100.175H427.546C428.881 90.937 417.915 81.987 410.918 90.274C413.086 77.319 411.423 54.104 393.823 63.52C393.818 55.834 386.066 46.426 377.836 47.039C366.423 47.888 364.75 60.188 361.792 68.332C351.355 59.683 345.688 72.101 345.959 82.167C337.303 74.401 331.846 85.105 331.503 93.173C327.344 92.67 317.492 92.843 320.569 100.175Z" fill="white"/>
<path d="M48.795 89.236H155.772C157.107 79.997 146.141 71.048 139.144 79.335C141.312 66.38 139.649 43.166 122.049 52.581C122.044 44.895 114.292 35.487 106.062 36.1C94.649 36.949 92.976 49.249 90.018 57.393C79.581 48.744 73.914 61.162 74.185 71.228C65.529 63.462 60.072 74.166 59.729 82.234C55.57 81.73 45.718 81.903 48.795 89.236Z" fill="white"/>
<path d="M280.561 287.421H153.439C145.4 287.421 138.883 280.904 138.883 272.865V14.801C138.883 6.762 145.4 0.244995 153.439 0.244995H280.561C288.6 0.244995 295.117 6.762 295.117 14.801V272.865C295.117 280.905 288.6 287.421 280.561 287.421Z" fill="#FFF6F3"/>
<path d="M256.391 197.644H177.609C171.95 197.644 167.362 193.057 167.362 187.397C167.362 181.738 171.95 177.15 177.609 177.15H256.391C262.05 177.15 266.638 181.738 266.638 187.397C266.637 193.057 262.05 197.644 256.391 197.644Z" fill="#89584E"/>
<path d="M184.327 189.381C184.327 188.729 184.46 188.144 184.727 187.626C184.994 187.108 185.352 186.703 185.799 186.413C186.255 186.114 186.742 185.965 187.26 185.965C187.613 185.965 187.924 186.016 188.191 186.118C188.458 186.212 188.697 186.373 188.909 186.601V186.012H191.513V195.837H188.909V191.926C188.674 192.201 188.422 192.405 188.155 192.538C187.896 192.664 187.598 192.727 187.26 192.727C186.734 192.727 186.247 192.586 185.799 192.303C185.352 192.02 184.994 191.627 184.727 191.125C184.46 190.614 184.327 190.033 184.327 189.381ZM188.909 189.334C188.909 188.949 188.807 188.67 188.603 188.498C188.407 188.317 188.187 188.227 187.943 188.227C187.708 188.227 187.488 188.325 187.284 188.521C187.079 188.71 186.977 188.996 186.977 189.381C186.977 189.758 187.075 190.033 187.272 190.206C187.476 190.371 187.7 190.453 187.943 190.453C188.187 190.453 188.407 190.363 188.603 190.182C188.807 190.002 188.909 189.719 188.909 189.334ZM195.302 187.237C195.569 186.852 195.895 186.546 196.28 186.318C196.665 186.083 197.066 185.965 197.482 185.965V188.757H196.74C196.245 188.757 195.88 188.843 195.644 189.016C195.416 189.189 195.302 189.495 195.302 189.935V192.656H192.687V186.012H195.302V187.237ZM203.145 192.739C202.517 192.739 201.959 192.637 201.472 192.432C200.993 192.228 200.612 191.945 200.329 191.584C200.047 191.223 199.886 190.815 199.846 190.359H202.356C202.387 190.555 202.47 190.701 202.603 190.795C202.744 190.889 202.921 190.936 203.133 190.936C203.267 190.936 203.373 190.909 203.451 190.854C203.53 190.791 203.569 190.716 203.569 190.63C203.569 190.481 203.487 190.375 203.322 190.312C203.157 190.249 202.878 190.178 202.485 190.1C202.006 190.006 201.61 189.903 201.295 189.794C200.989 189.684 200.718 189.495 200.483 189.228C200.255 188.961 200.141 188.592 200.141 188.121C200.141 187.712 200.247 187.343 200.459 187.013C200.679 186.676 201.001 186.413 201.425 186.224C201.849 186.028 202.363 185.93 202.968 185.93C203.864 185.93 204.563 186.149 205.065 186.589C205.576 187.029 205.882 187.602 205.984 188.309H203.663C203.624 188.129 203.542 187.991 203.416 187.897C203.29 187.795 203.121 187.744 202.909 187.744C202.776 187.744 202.674 187.771 202.603 187.826C202.532 187.873 202.497 187.948 202.497 188.05C202.497 188.184 202.579 188.286 202.744 188.356C202.909 188.419 203.172 188.486 203.534 188.557C204.013 188.651 204.417 188.757 204.747 188.875C205.077 188.992 205.364 189.197 205.607 189.487C205.851 189.77 205.972 190.163 205.972 190.665C205.972 191.058 205.858 191.411 205.631 191.726C205.403 192.04 205.073 192.287 204.641 192.468C204.217 192.648 203.718 192.739 203.145 192.739ZM206.657 189.334C206.657 188.643 206.798 188.042 207.081 187.532C207.371 187.013 207.772 186.617 208.282 186.342C208.801 186.067 209.39 185.93 210.049 185.93C210.913 185.93 211.64 186.173 212.229 186.66C212.826 187.147 213.203 187.822 213.36 188.686H210.591C210.489 188.341 210.289 188.168 209.991 188.168C209.779 188.168 209.61 188.266 209.484 188.462C209.366 188.659 209.307 188.949 209.307 189.334C209.307 189.719 209.366 190.01 209.484 190.206C209.61 190.402 209.779 190.5 209.991 190.5C210.289 190.5 210.489 190.328 210.591 189.982H213.36C213.203 190.846 212.826 191.521 212.229 192.008C211.64 192.495 210.913 192.739 210.049 192.739C209.39 192.739 208.801 192.601 208.282 192.326C207.772 192.051 207.371 191.659 207.081 191.148C206.798 190.63 206.657 190.025 206.657 189.334ZM213.835 189.334C213.835 188.635 213.953 188.03 214.189 187.52C214.432 187.002 214.762 186.609 215.178 186.342C215.595 186.067 216.062 185.93 216.58 185.93C217.012 185.93 217.385 186.02 217.699 186.2C218.014 186.373 218.253 186.613 218.418 186.919V186.012H221.022V192.656H218.418V191.749C218.253 192.055 218.014 192.299 217.699 192.479C217.385 192.652 217.012 192.739 216.58 192.739C216.062 192.739 215.595 192.605 215.178 192.338C214.762 192.063 214.432 191.671 214.189 191.16C213.953 190.642 213.835 190.033 213.835 189.334ZM218.418 189.334C218.418 188.981 218.328 188.706 218.147 188.509C217.966 188.313 217.735 188.215 217.452 188.215C217.169 188.215 216.938 188.313 216.757 188.509C216.576 188.706 216.486 188.981 216.486 189.334C216.486 189.688 216.576 189.962 216.757 190.159C216.938 190.355 217.169 190.453 217.452 190.453C217.735 190.453 217.966 190.355 218.147 190.159C218.328 189.962 218.418 189.688 218.418 189.334ZM226.849 185.965C227.611 185.965 228.204 186.22 228.628 186.731C229.06 187.241 229.276 187.932 229.276 188.804V192.656H226.673V189.134C226.673 188.82 226.586 188.572 226.413 188.392C226.248 188.203 226.025 188.109 225.742 188.109C225.451 188.109 225.224 188.203 225.059 188.392C224.894 188.572 224.811 188.82 224.811 189.134V192.656H222.196V186.012H224.811V187.025C225.015 186.711 225.286 186.456 225.624 186.259C225.97 186.063 226.378 185.965 226.849 185.965Z" fill="white"/>
<path d="M256.018 134.462H252.897V137.583H256.018V134.462Z" fill="#89584E"/>
<path d="M249.776 134.462H246.654V137.583H249.776V134.462Z" fill="#89584E"/>
<path d="M240.412 134.462H237.29V137.583H240.412V134.462Z" fill="#89584E"/>
<path d="M234.168 134.462H231.047V137.583H234.168V134.462Z" fill="#89584E"/>
<path d="M231.047 134.462H227.925V137.583H231.047V134.462Z" fill="#89584E"/>
<path d="M227.926 134.462H224.804V137.583H227.926V134.462Z" fill="#89584E"/>
<path d="M215.44 134.462H212.318V137.583H215.44V134.462Z" fill="#89584E"/>
<path d="M209.197 134.462H206.075V137.583H209.197V134.462Z" fill="#89584E"/>
<path d="M199.832 134.462H196.71V137.583H199.832V134.462Z" fill="#89584E"/>
<path d="M196.71 134.462H193.589V137.583H196.71V134.462Z" fill="#89584E"/>
<path d="M193.589 134.462H190.467V137.583H193.589V134.462Z" fill="#89584E"/>
<path d="M190.468 134.462H187.346V137.583H190.468V134.462Z" fill="#89584E"/>
<path d="M187.346 134.462H184.224V137.583H187.346V134.462Z" fill="#89584E"/>
<path d="M184.225 134.462H181.103V137.583H184.225V134.462Z" fill="#89584E"/>
<path d="M181.103 134.462H177.981V137.583H181.103V134.462Z" fill="#89584E"/>
<path d="M256.018 128.219V125.097H252.897V128.219H256.018Z" fill="#89584E"/>
<path d="M256.018 121.975V118.854H252.897V121.975H256.018Z" fill="#89584E"/>
<path d="M256.019 118.855V115.733H252.898V118.855H256.019Z" fill="#89584E"/>
<path d="M256.019 112.612V109.49H252.898V112.612H256.019Z" fill="#89584E"/>
<path d="M256.019 100.126V97.0036H252.898V100.126H256.019Z" fill="#89584E"/>
<path d="M256.019 90.7611V87.6391H252.898V90.7611H256.019Z" fill="#89584E"/>
<path d="M256.019 87.6386V84.5176H252.898V87.6386H256.019Z" fill="#89584E"/>
<path d="M256.019 81.3966V78.2746H252.898V81.3966H256.019Z" fill="#89584E"/>
<path d="M256.019 78.2751V75.1531H252.898V78.2751H256.019Z" fill="#89584E"/>
<path d="M256.019 75.1536V72.0316H252.898V75.1536H256.019Z" fill="#89584E"/>
<path d="M256.019 72.0321V68.9101H252.898V72.0321H256.019Z" fill="#89584E"/>
<path d="M256.019 68.9106V65.7886H252.898V68.9106H256.019Z" fill="#89584E"/>
<path d="M256.019 65.7891V62.6671H252.898V65.7891H256.019Z" fill="#89584E"/>
<path d="M256.019 62.6676V59.5456H252.898V62.6676H256.019Z" fill="#89584E"/>
<path d="M252.897 125.098V121.976H249.775V125.098H252.897Z" fill="#89584E"/>
<path d="M252.898 121.976V118.855H249.776V121.976H252.898Z" fill="#89584E"/>
<path d="M252.897 112.612V109.49H249.775V112.612H252.897Z" fill="#89584E"/>
<path d="M252.898 109.49V106.368H249.776V109.49H252.898Z" fill="#89584E"/>
<path d="M252.898 103.248V100.126H249.776V103.248H252.898Z" fill="#89584E"/>
<path d="M252.897 100.126V97.004H249.775V100.126H252.897Z" fill="#89584E"/>
<path d="M252.898 97.0045V93.8825H249.776V97.0045H252.898Z" fill="#89584E"/>
<path d="M252.898 90.7615V87.6395H249.776V90.7615H252.898Z" fill="#89584E"/>
<path d="M252.897 81.397V78.275H249.775V81.397H252.897Z" fill="#89584E"/>
<path d="M252.897 62.668V59.546H249.775V62.668H252.897Z" fill="#89584E"/>
<path d="M249.776 131.341V128.219H246.654V131.341H249.776Z" fill="#89584E"/>
<path d="M249.776 125.097V121.975H246.654V125.097H249.776Z" fill="#89584E"/>
<path d="M249.776 118.855V115.733H246.654V118.855H249.776Z" fill="#89584E"/>
<path d="M249.776 115.732V112.611H246.654V115.732H249.776Z" fill="#89584E"/>
<path d="M249.776 109.49V106.368H246.654V109.49H249.776Z" fill="#89584E"/>
<path d="M249.776 103.247V100.125H246.654V103.247H249.776Z" fill="#89584E"/>
<path d="M249.776 97.004V93.882H246.654V97.004H249.776Z" fill="#89584E"/>
<path d="M249.776 93.8825V90.7605H246.654V93.8825H249.776Z" fill="#89584E"/>
<path d="M249.776 90.761V87.639H246.654V90.761H249.776Z" fill="#89584E"/>
<path d="M249.776 87.6386V84.5176H246.654V87.6386H249.776Z" fill="#89584E"/>
<path d="M249.776 81.3965V78.2745H246.654V81.3965H249.776Z" fill="#89584E"/>
<path d="M249.776 75.1535V72.0315H246.654V75.1535H249.776Z" fill="#89584E"/>
<path d="M249.776 72.032V68.91H246.654V72.032H249.776Z" fill="#89584E"/>
<path d="M249.776 68.9105V65.7885H246.654V68.9105H249.776Z" fill="#89584E"/>
<path d="M249.776 62.6675V59.5455H246.654V62.6675H249.776Z" fill="#89584E"/>
<path d="M246.655 134.463V131.341H243.533V134.463H246.655Z" fill="#89584E"/>
<path d="M246.654 131.341V128.219H243.532V131.341H246.654Z" fill="#89584E"/>
<path d="M246.654 125.098V121.976H243.532V125.098H246.654Z" fill="#89584E"/>
<path d="M246.655 121.976V118.855H243.533V121.976H246.655Z" fill="#89584E"/>
<path d="M246.655 115.733V112.612H243.533V115.733H246.655Z" fill="#89584E"/>
<path d="M246.654 112.612V109.49H243.532V112.612H246.654Z" fill="#89584E"/>
<path d="M246.655 109.491V106.369H243.533V109.491H246.655Z" fill="#89584E"/>
<path d="M246.654 106.368V103.247H243.532V106.368H246.654Z" fill="#89584E"/>
<path d="M246.655 103.248V100.126H243.533V103.248H246.655Z" fill="#89584E"/>
<path d="M246.654 100.126V97.0041H243.532V100.126H246.654Z" fill="#89584E"/>
<path d="M246.655 97.0046V93.8826H243.533V97.0046H246.655Z" fill="#89584E"/>
<path d="M246.654 81.3971V78.2751H243.532V81.3971H246.654Z" fill="#89584E"/>
<path d="M246.654 75.1541V72.0321H243.532V75.1541H246.654Z" fill="#89584E"/>
<path d="M246.655 72.0326V68.9106H243.533V72.0326H246.655Z" fill="#89584E"/>
<path d="M246.654 68.9111V65.7891H243.532V68.9111H246.654Z" fill="#89584E"/>
<path d="M246.654 62.6681V59.5461H243.532V62.6681H246.654Z" fill="#89584E"/>
<path d="M243.533 131.341V128.219H240.412V131.341H243.533Z" fill="#89584E"/>
<path d="M243.533 125.098V121.976H240.412V125.098H243.533Z" fill="#89584E"/>
<path d="M243.533 118.855V115.733H240.412V118.855H243.533Z" fill="#89584E"/>
<path d="M243.533 112.612V109.49H240.412V112.612H243.533Z" fill="#89584E"/>
<path d="M243.533 106.368V103.247H240.412V106.368H243.533Z" fill="#89584E"/>
<path d="M243.533 100.126V97.0036H240.412V100.126H243.533Z" fill="#89584E"/>
<path d="M243.533 93.8826V90.7606H240.412V93.8826H243.533Z" fill="#89584E"/>
<path d="M243.533 87.6386V84.5176H240.412V87.6386H243.533Z" fill="#89584E"/>
<path d="M243.533 81.3966V78.2746H240.412V81.3966H243.533Z" fill="#89584E"/>
<path d="M243.533 75.1536V72.0316H240.412V75.1536H243.533Z" fill="#89584E"/>
<path d="M243.533 72.0321V68.9101H240.412V72.0321H243.533Z" fill="#89584E"/>
<path d="M243.533 68.9106V65.7886H240.412V68.9106H243.533Z" fill="#89584E"/>
<path d="M243.533 62.6676V59.5456H240.412V62.6676H243.533Z" fill="#89584E"/>
<path d="M240.412 134.463V131.341H237.29V134.463H240.412Z" fill="#89584E"/>
<path d="M240.411 131.341V128.219H237.289V131.341H240.411Z" fill="#89584E"/>
<path d="M240.411 125.098V121.976H237.289V125.098H240.411Z" fill="#89584E"/>
<path d="M240.412 121.976V118.855H237.29V121.976H240.412Z" fill="#89584E"/>
<path d="M240.411 118.855V115.733H237.289V118.855H240.411Z" fill="#89584E"/>
<path d="M240.412 115.733V112.612H237.29V115.733H240.412Z" fill="#89584E"/>
<path d="M240.412 109.49V106.368H237.29V109.49H240.412Z" fill="#89584E"/>
<path d="M240.411 100.126V97.004H237.289V100.126H240.411Z" fill="#89584E"/>
<path d="M240.411 93.883V90.761H237.289V93.883H240.411Z" fill="#89584E"/>
<path d="M240.412 90.7615V87.6395H237.29V90.7615H240.412Z" fill="#89584E"/>
<path d="M240.411 81.397V78.275H237.289V81.397H240.411Z" fill="#89584E"/>
<path d="M240.411 62.668V59.546H237.289V62.668H240.411Z" fill="#89584E"/>
<path d="M237.29 134.462V131.34H234.168V134.462H237.29Z" fill="#89584E"/>
<path d="M237.29 131.341V128.219H234.168V131.341H237.29Z" fill="#89584E"/>
<path d="M237.29 121.975V118.854H234.168V121.975H237.29Z" fill="#89584E"/>
<path d="M237.29 115.732V112.611H234.168V115.732H237.29Z" fill="#89584E"/>
<path d="M237.29 112.612V109.49H234.168V112.612H237.29Z" fill="#89584E"/>
<path d="M237.29 93.8826V90.7606H234.168V93.8826H237.29Z" fill="#89584E"/>
<path d="M237.29 87.6386V84.5176H234.168V87.6386H237.29Z" fill="#89584E"/>
<path d="M237.29 81.3966V78.2746H234.168V81.3966H237.29Z" fill="#89584E"/>
<path d="M237.29 78.2751V75.1531H234.168V78.2751H237.29Z" fill="#89584E"/>
<path d="M237.29 75.1536V72.0316H234.168V75.1536H237.29Z" fill="#89584E"/>
<path d="M237.29 72.0321V68.9101H234.168V72.0321H237.29Z" fill="#89584E"/>
<path d="M237.29 68.9106V65.7886H234.168V68.9106H237.29Z" fill="#89584E"/>
<path d="M237.29 65.7891V62.6671H234.168V65.7891H237.29Z" fill="#89584E"/>
<path d="M237.29 62.6676V59.5456H234.168V62.6676H237.29Z" fill="#89584E"/>
<path d="M234.168 131.341V128.219H231.047V131.341H234.168Z" fill="#89584E"/>
<path d="M234.168 128.22V125.098H231.047V128.22H234.168Z" fill="#89584E"/>
<path d="M234.168 125.098V121.976H231.047V125.098H234.168Z" fill="#89584E"/>
<path d="M234.169 115.733V112.612H231.048V115.733H234.169Z" fill="#89584E"/>
<path d="M234.168 112.612V109.49H231.047V112.612H234.168Z" fill="#89584E"/>
<path d="M234.168 103.248V100.126H231.047V103.248H234.168Z" fill="#89584E"/>
<path d="M234.168 100.126V97.0041H231.047V100.126H234.168Z" fill="#89584E"/>
<path d="M234.168 93.8831V90.7611H231.047V93.8831H234.168Z" fill="#89584E"/>
<path d="M234.169 90.7616V87.6396H231.048V90.7616H234.169Z" fill="#89584E"/>
<path d="M234.168 87.6391V84.5181H231.047V87.6391H234.168Z" fill="#89584E"/>
<path d="M231.047 134.462V131.34H227.925V134.462H231.047Z" fill="#89584E"/>
<path d="M231.047 131.341V128.219H227.925V131.341H231.047Z" fill="#89584E"/>
<path d="M231.047 128.219V125.097H227.925V128.219H231.047Z" fill="#89584E"/>
<path d="M231.047 125.098V121.976H227.925V125.098H231.047Z" fill="#89584E"/>
<path d="M231.047 121.975V118.854H227.925V121.975H231.047Z" fill="#89584E"/>
<path d="M231.047 115.732V112.611H227.925V115.732H231.047Z" fill="#89584E"/>
<path d="M231.047 112.612V109.49H227.925V112.612H231.047Z" fill="#89584E"/>
<path d="M231.047 106.368V103.247H227.925V106.368H231.047Z" fill="#89584E"/>
<path d="M231.047 100.126V97.0036H227.925V100.126H231.047Z" fill="#89584E"/>
<path d="M231.047 93.8826V90.7606H227.925V93.8826H231.047Z" fill="#89584E"/>
<path d="M231.047 84.5181V81.3961H227.925V84.5181H231.047Z" fill="#89584E"/>
<path d="M231.047 81.3966V78.2746H227.925V81.3966H231.047Z" fill="#89584E"/>
<path d="M231.047 75.1536V72.0316H227.925V75.1536H231.047Z" fill="#89584E"/>
<path d="M231.047 72.0321V68.9101H227.925V72.0321H231.047Z" fill="#89584E"/>
<path d="M231.047 62.6676V59.5456H227.925V62.6676H231.047Z" fill="#89584E"/>
<path d="M227.926 134.463V131.341H224.804V134.463H227.926Z" fill="#89584E"/>
<path d="M227.926 128.22V125.098H224.804V128.22H227.926Z" fill="#89584E"/>
<path d="M227.925 125.098V121.976H224.803V125.098H227.925Z" fill="#89584E"/>
<path d="M227.925 118.855V115.733H224.803V118.855H227.925Z" fill="#89584E"/>
<path d="M227.926 115.733V112.612H224.804V115.733H227.926Z" fill="#89584E"/>
<path d="M227.925 112.612V109.49H224.803V112.612H227.925Z" fill="#89584E"/>
<path d="M227.926 109.491V106.369H224.804V109.491H227.926Z" fill="#89584E"/>
<path d="M227.925 106.368V103.247H224.803V106.368H227.925Z" fill="#89584E"/>
<path d="M227.926 103.248V100.126H224.804V103.248H227.926Z" fill="#89584E"/>
<path d="M227.925 100.126V97.0041H224.803V100.126H227.925Z" fill="#89584E"/>
<path d="M227.926 97.0046V93.8826H224.804V97.0046H227.926Z" fill="#89584E"/>
<path d="M227.925 93.8831V90.7611H224.803V93.8831H227.925Z" fill="#89584E"/>
<path d="M227.926 90.7616V87.6396H224.804V90.7616H227.926Z" fill="#89584E"/>
<path d="M227.926 84.5187V81.3967H224.804V84.5187H227.926Z" fill="#89584E"/>
<path d="M227.925 81.3971V78.2751H224.803V81.3971H227.925Z" fill="#89584E"/>
<path d="M227.926 78.2756V75.1536H224.804V78.2756H227.926Z" fill="#89584E"/>
<path d="M227.925 68.9111V65.7891H224.803V68.9111H227.925Z" fill="#89584E"/>
<path d="M227.926 65.7896V62.6676H224.804V65.7896H227.926Z" fill="#89584E"/>
<path d="M224.803 134.462V131.34H221.682V134.462H224.803Z" fill="#89584E"/>
<path d="M224.804 131.341V128.219H221.683V131.341H224.804Z" fill="#89584E"/>
<path d="M224.804 125.098V121.976H221.683V125.098H224.804Z" fill="#89584E"/>
<path d="M224.803 121.975V118.854H221.682V121.975H224.803Z" fill="#89584E"/>
<path d="M224.804 115.732V112.611H221.683V115.732H224.804Z" fill="#89584E"/>
<path d="M224.804 109.49V106.368H221.683V109.49H224.804Z" fill="#89584E"/>
<path d="M224.804 97.0041V93.8821H221.683V97.0041H224.804Z" fill="#89584E"/>
<path d="M224.804 93.8826V90.7606H221.683V93.8826H224.804Z" fill="#89584E"/>
<path d="M224.804 87.6386V84.5176H221.683V87.6386H224.804Z" fill="#89584E"/>
<path d="M224.804 81.3966V78.2746H221.683V81.3966H224.804Z" fill="#89584E"/>
<path d="M224.804 72.0321V68.9101H221.683V72.0321H224.804Z" fill="#89584E"/>
<path d="M224.804 62.6676V59.5456H221.683V62.6676H224.804Z" fill="#89584E"/>
<path d="M221.682 131.341V128.219H218.56V131.341H221.682Z" fill="#89584E"/>
<path d="M221.683 128.22V125.098H218.561V128.22H221.683Z" fill="#89584E"/>
<path d="M221.682 112.612V109.49H218.56V112.612H221.682Z" fill="#89584E"/>
<path d="M221.683 109.49V106.368H218.561V109.49H221.683Z" fill="#89584E"/>
<path d="M221.682 106.368V103.247H218.56V106.368H221.682Z" fill="#89584E"/>
<path d="M221.683 103.248V100.126H218.561V103.248H221.683Z" fill="#89584E"/>
<path d="M221.683 97.0045V93.8825H218.561V97.0045H221.683Z" fill="#89584E"/>
<path d="M221.682 93.883V90.761H218.56V93.883H221.682Z" fill="#89584E"/>
<path d="M221.683 90.7615V87.6395H218.561V90.7615H221.683Z" fill="#89584E"/>
<path d="M221.682 87.6391V84.5181H218.56V87.6391H221.682Z" fill="#89584E"/>
<path d="M221.683 84.5186V81.3966H218.561V84.5186H221.683Z" fill="#89584E"/>
<path d="M221.682 81.397V78.275H218.56V81.397H221.682Z" fill="#89584E"/>
<path d="M221.683 78.2755V75.1535H218.561V78.2755H221.683Z" fill="#89584E"/>
<path d="M221.682 75.154V72.032H218.56V75.154H221.682Z" fill="#89584E"/>
<path d="M221.683 65.7895V62.6675H218.561V65.7895H221.683Z" fill="#89584E"/>
<path d="M221.682 62.668V59.546H218.56V62.668H221.682Z" fill="#89584E"/>
<path d="M218.561 134.462V131.34H215.439V134.462H218.561Z" fill="#89584E"/>
<path d="M218.561 131.341V128.219H215.439V131.341H218.561Z" fill="#89584E"/>
<path d="M218.561 121.975V118.854H215.439V121.975H218.561Z" fill="#89584E"/>
<path d="M218.561 118.855V115.733H215.439V118.855H218.561Z" fill="#89584E"/>
<path d="M218.561 115.732V112.611H215.439V115.732H218.561Z" fill="#89584E"/>
<path d="M218.561 106.368V103.247H215.439V106.368H218.561Z" fill="#89584E"/>
<path d="M218.561 100.126V97.0036H215.439V100.126H218.561Z" fill="#89584E"/>
<path d="M218.561 87.6386V84.5176H215.439V87.6386H218.561Z" fill="#89584E"/>
<path d="M218.561 81.3966V78.2746H215.439V81.3966H218.561Z" fill="#89584E"/>
<path d="M218.561 75.1536V72.0316H215.439V75.1536H218.561Z" fill="#89584E"/>
<path d="M218.561 68.9106V65.7886H215.439V68.9106H218.561Z" fill="#89584E"/>
<path d="M218.561 65.7891V62.6671H215.439V65.7891H218.561Z" fill="#89584E"/>
<path d="M215.44 134.463V131.341H212.318V134.463H215.44Z" fill="#89584E"/>
<path d="M215.439 131.341V128.219H212.317V131.341H215.439Z" fill="#89584E"/>
<path d="M215.44 128.22V125.098H212.318V128.22H215.44Z" fill="#89584E"/>
<path d="M215.439 118.855V115.733H212.317V118.855H215.439Z" fill="#89584E"/>
<path d="M215.439 112.612V109.49H212.317V112.612H215.439Z" fill="#89584E"/>
<path d="M215.44 109.491V106.369H212.318V109.491H215.44Z" fill="#89584E"/>
<path d="M215.439 106.368V103.247H212.317V106.368H215.439Z" fill="#89584E"/>
<path d="M215.439 100.126V97.0041H212.317V100.126H215.439Z" fill="#89584E"/>
<path d="M215.439 93.8831V90.7611H212.317V93.8831H215.439Z" fill="#89584E"/>
<path d="M215.44 90.7616V87.6396H212.318V90.7616H215.44Z" fill="#89584E"/>
<path d="M215.439 87.6392V84.5182H212.317V87.6392H215.439Z" fill="#89584E"/>
<path d="M215.44 84.5187V81.3967H212.318V84.5187H215.44Z" fill="#89584E"/>
<path d="M215.44 78.2756V75.1536H212.318V78.2756H215.44Z" fill="#89584E"/>
<path d="M215.439 75.1541V72.0321H212.317V75.1541H215.439Z" fill="#89584E"/>
<path d="M215.439 68.9111V65.7891H212.317V68.9111H215.439Z" fill="#89584E"/>
<path d="M215.44 65.7896V62.6676H212.318V65.7896H215.44Z" fill="#89584E"/>
<path d="M212.317 134.462V131.34H209.196V134.462H212.317Z" fill="#89584E"/>
<path d="M212.318 125.098V121.976H209.197V125.098H212.318Z" fill="#89584E"/>
<path d="M212.317 121.975V118.854H209.196V121.975H212.317Z" fill="#89584E"/>
<path d="M212.318 118.855V115.733H209.197V118.855H212.318Z" fill="#89584E"/>
<path d="M212.318 115.732V112.611H209.197V115.732H212.318Z" fill="#89584E"/>
<path d="M212.318 112.612V109.49H209.197V112.612H212.318Z" fill="#89584E"/>
<path d="M212.318 109.49V106.368H209.197V109.49H212.318Z" fill="#89584E"/>
<path d="M212.317 103.247V100.125H209.196V103.247H212.317Z" fill="#89584E"/>
<path d="M212.318 90.7611V87.6391H209.197V90.7611H212.318Z" fill="#89584E"/>
<path d="M212.318 87.6386V84.5176H209.197V87.6386H212.318Z" fill="#89584E"/>
<path d="M212.318 81.3966V78.2746H209.197V81.3966H212.318Z" fill="#89584E"/>
<path d="M212.318 75.1536V72.0316H209.197V75.1536H212.318Z" fill="#89584E"/>
<path d="M212.318 72.0321V68.9101H209.197V72.0321H212.318Z" fill="#89584E"/>
<path d="M212.318 68.9106V65.7886H209.197V68.9106H212.318Z" fill="#89584E"/>
<path d="M212.318 62.6676V59.5456H209.197V62.6676H212.318Z" fill="#89584E"/>
<path d="M209.197 134.463V131.341H206.075V134.463H209.197Z" fill="#89584E"/>
<path d="M209.197 128.22V125.098H206.075V128.22H209.197Z" fill="#89584E"/>
<path d="M209.196 125.098V121.976H206.074V125.098H209.196Z" fill="#89584E"/>
<path d="M209.197 115.733V112.612H206.075V115.733H209.197Z" fill="#89584E"/>
<path d="M209.197 109.491V106.369H206.075V109.491H209.197Z" fill="#89584E"/>
<path d="M209.197 103.248V100.126H206.075V103.248H209.197Z" fill="#89584E"/>
<path d="M209.196 100.126V97.0041H206.074V100.126H209.196Z" fill="#89584E"/>
<path d="M209.197 97.0046V93.8826H206.075V97.0046H209.197Z" fill="#89584E"/>
<path d="M209.196 93.8831V90.7611H206.074V93.8831H209.196Z" fill="#89584E"/>
<path d="M209.196 87.6391V84.5181H206.074V87.6391H209.196Z" fill="#89584E"/>
<path d="M209.197 84.5186V81.3966H206.075V84.5186H209.197Z" fill="#89584E"/>
<path d="M209.196 81.3971V78.2751H206.074V81.3971H209.196Z" fill="#89584E"/>
<path d="M209.196 75.1541V72.0321H206.074V75.1541H209.196Z" fill="#89584E"/>
<path d="M209.196 68.9111V65.7891H206.074V68.9111H209.196Z" fill="#89584E"/>
<path d="M209.197 65.7896V62.6676H206.075V65.7896H209.197Z" fill="#89584E"/>
<path d="M206.075 131.341V128.219H202.954V131.341H206.075Z" fill="#89584E"/>
<path d="M206.075 109.49V106.368H202.954V109.49H206.075Z" fill="#89584E"/>
<path d="M206.075 106.368V103.247H202.954V106.368H206.075Z" fill="#89584E"/>
<path d="M206.074 103.247V100.125H202.953V103.247H206.074Z" fill="#89584E"/>
<path d="M206.075 97.0041V93.8821H202.954V97.0041H206.075Z" fill="#89584E"/>
<path d="M206.075 93.8826V90.7606H202.954V93.8826H206.075Z" fill="#89584E"/>
<path d="M206.075 90.7611V87.6391H202.954V90.7611H206.075Z" fill="#89584E"/>
<path d="M206.075 81.3966V78.2746H202.954V81.3966H206.075Z" fill="#89584E"/>
<path d="M206.075 78.2751V75.1531H202.954V78.2751H206.075Z" fill="#89584E"/>
<path d="M206.075 68.9106V65.7886H202.954V68.9106H206.075Z" fill="#89584E"/>
<path d="M202.953 112.612V109.49H199.831V112.612H202.953Z" fill="#89584E"/>
<path d="M202.954 103.248V100.126H199.832V103.248H202.954Z" fill="#89584E"/>
<path d="M202.953 100.126V97.0041H199.831V100.126H202.953Z" fill="#89584E"/>
<path d="M202.954 90.7616V87.6396H199.832V90.7616H202.954Z" fill="#89584E"/>
<path d="M199.832 134.462V131.34H196.71V134.462H199.832Z" fill="#89584E"/>
<path d="M199.832 131.341V128.219H196.71V131.341H199.832Z" fill="#89584E"/>
<path d="M199.832 128.219V125.097H196.71V128.219H199.832Z" fill="#89584E"/>
<path d="M199.832 125.098V121.976H196.71V125.098H199.832Z" fill="#89584E"/>
<path d="M199.832 121.975V118.854H196.71V121.975H199.832Z" fill="#89584E"/>
<path d="M199.832 118.855V115.733H196.71V118.855H199.832Z" fill="#89584E"/>
<path d="M199.832 106.368V103.247H196.71V106.368H199.832Z" fill="#89584E"/>
<path d="M199.832 103.247V100.125H196.71V103.247H199.832Z" fill="#89584E"/>
<path d="M199.832 97.0041V93.8821H196.71V97.0041H199.832Z" fill="#89584E"/>
<path d="M199.832 90.7611V87.6391H196.71V90.7611H199.832Z" fill="#89584E"/>
<path d="M199.832 87.6387V84.5177H196.71V87.6387H199.832Z" fill="#89584E"/>
<path d="M199.832 81.3966V78.2746H196.71V81.3966H199.832Z" fill="#89584E"/>
<path d="M199.832 78.2751V75.1531H196.71V78.2751H199.832Z" fill="#89584E"/>
<path d="M199.832 75.1536V72.0316H196.71V75.1536H199.832Z" fill="#89584E"/>
<path d="M199.832 72.0321V68.9101H196.71V72.0321H199.832Z" fill="#89584E"/>
<path d="M199.832 68.9106V65.7886H196.71V68.9106H199.832Z" fill="#89584E"/>
<path d="M199.832 65.7891V62.6671H196.71V65.7891H199.832Z" fill="#89584E"/>
<path d="M199.832 62.6676V59.5456H196.71V62.6676H199.832Z" fill="#89584E"/>
<path d="M196.71 118.855V115.733H193.589V118.855H196.71Z" fill="#89584E"/>
<path d="M196.711 109.491V106.369H193.59V109.491H196.711Z" fill="#89584E"/>
<path d="M196.71 103.248V100.126H193.589V103.248H196.71Z" fill="#89584E"/>
<path d="M196.71 93.8831V90.7611H193.589V93.8831H196.71Z" fill="#89584E"/>
<path d="M196.71 81.3971V78.2751H193.589V81.3971H196.71Z" fill="#89584E"/>
<path d="M196.71 62.6681V59.5461H193.589V62.6681H196.71Z" fill="#89584E"/>
<path d="M193.589 131.341V128.219H190.467V131.341H193.589Z" fill="#89584E"/>
<path d="M193.589 128.219V125.097H190.467V128.219H193.589Z" fill="#89584E"/>
<path d="M193.589 125.098V121.976H190.467V125.098H193.589Z" fill="#89584E"/>
<path d="M193.589 118.855V115.733H190.467V118.855H193.589Z" fill="#89584E"/>
<path d="M193.589 112.612V109.49H190.467V112.612H193.589Z" fill="#89584E"/>
<path d="M193.589 106.368V103.247H190.467V106.368H193.589Z" fill="#89584E"/>
<path d="M193.589 103.247V100.125H190.467V103.247H193.589Z" fill="#89584E"/>
<path d="M193.589 100.126V97.0036H190.467V100.126H193.589Z" fill="#89584E"/>
<path d="M193.589 97.0041V93.8821H190.467V97.0041H193.589Z" fill="#89584E"/>
<path d="M193.589 93.8826V90.7606H190.467V93.8826H193.589Z" fill="#89584E"/>
<path d="M193.589 81.3966V78.2746H190.467V81.3966H193.589Z" fill="#89584E"/>
<path d="M193.589 75.1536V72.0316H190.467V75.1536H193.589Z" fill="#89584E"/>
<path d="M193.589 72.0321V68.9101H190.467V72.0321H193.589Z" fill="#89584E"/>
<path d="M193.589 68.9106V65.7886H190.467V68.9106H193.589Z" fill="#89584E"/>
<path d="M193.589 62.6676V59.5456H190.467V62.6676H193.589Z" fill="#89584E"/>
<path d="M190.467 131.341V128.219H187.345V131.341H190.467Z" fill="#89584E"/>
<path d="M190.468 128.22V125.098H187.346V128.22H190.468Z" fill="#89584E"/>
<path d="M190.467 125.098V121.976H187.345V125.098H190.467Z" fill="#89584E"/>
<path d="M190.467 118.855V115.733H187.345V118.855H190.467Z" fill="#89584E"/>
<path d="M190.467 100.126V97.0041H187.345V100.126H190.467Z" fill="#89584E"/>
<path d="M190.468 97.0046V93.8826H187.346V97.0046H190.468Z" fill="#89584E"/>
<path d="M190.467 87.6392V84.5182H187.345V87.6392H190.467Z" fill="#89584E"/>
<path d="M190.467 81.3971V78.2751H187.345V81.3971H190.467Z" fill="#89584E"/>
<path d="M190.467 75.1541V72.0321H187.345V75.1541H190.467Z" fill="#89584E"/>
<path d="M190.468 72.0326V68.9106H187.346V72.0326H190.468Z" fill="#89584E"/>
<path d="M190.467 68.9111V65.7891H187.345V68.9111H190.467Z" fill="#89584E"/>
<path d="M190.467 62.6681V59.5461H187.345V62.6681H190.467Z" fill="#89584E"/>
<path d="M187.346 131.341V128.219H184.224V131.341H187.346Z" fill="#89584E"/>
<path d="M187.346 128.219V125.097H184.224V128.219H187.346Z" fill="#89584E"/>
<path d="M187.346 125.098V121.976H184.224V125.098H187.346Z" fill="#89584E"/>
<path d="M187.346 118.855V115.733H184.224V118.855H187.346Z" fill="#89584E"/>
<path d="M187.346 106.368V103.247H184.224V106.368H187.346Z" fill="#89584E"/>
<path d="M187.346 97.0041V93.8821H184.224V97.0041H187.346Z" fill="#89584E"/>
<path d="M187.346 90.7611V87.6391H184.224V90.7611H187.346Z" fill="#89584E"/>
<path d="M187.346 81.3966V78.2746H184.224V81.3966H187.346Z" fill="#89584E"/>
<path d="M187.346 75.1536V72.0316H184.224V75.1536H187.346Z" fill="#89584E"/>
<path d="M187.346 72.0321V68.9101H184.224V72.0321H187.346Z" fill="#89584E"/>
<path d="M187.346 68.9106V65.7886H184.224V68.9106H187.346Z" fill="#89584E"/>
<path d="M187.346 62.6676V59.5456H184.224V62.6676H187.346Z" fill="#89584E"/>
<path d="M184.224 118.855V115.733H181.102V118.855H184.224Z" fill="#89584E"/>
<path d="M184.224 112.612V109.49H181.102V112.612H184.224Z" fill="#89584E"/>
<path d="M184.225 103.248V100.126H181.103V103.248H184.225Z" fill="#89584E"/>
<path d="M184.224 100.126V97.0041H181.102V100.126H184.224Z" fill="#89584E"/>
<path d="M184.225 97.0046V93.8826H181.103V97.0046H184.225Z" fill="#89584E"/>
<path d="M184.224 93.8831V90.7611H181.102V93.8831H184.224Z" fill="#89584E"/>
<path d="M184.224 87.6392V84.5182H181.102V87.6392H184.224Z" fill="#89584E"/>
<path d="M184.224 81.3971V78.2751H181.102V81.3971H184.224Z" fill="#89584E"/>
<path d="M184.224 62.6681V59.5461H181.102V62.6681H184.224Z" fill="#89584E"/>
<path d="M181.103 134.462V131.34H177.981V134.462H181.103Z" fill="#89584E"/>
<path d="M181.103 131.341V128.219H177.981V131.341H181.103Z" fill="#89584E"/>
<path d="M181.103 128.219V125.097H177.981V128.219H181.103Z" fill="#89584E"/>
<path d="M181.103 125.098V121.976H177.981V125.098H181.103Z" fill="#89584E"/>
<path d="M181.103 121.975V118.854H177.981V121.975H181.103Z" fill="#89584E"/>
<path d="M181.103 118.855V115.733H177.981V118.855H181.103Z" fill="#89584E"/>
<path d="M181.103 109.49V106.368H177.981V109.49H181.103Z" fill="#89584E"/>
<path d="M181.103 106.368V103.247H177.981V106.368H181.103Z" fill="#89584E"/>
<path d="M181.103 93.8826V90.7606H177.981V93.8826H181.103Z" fill="#89584E"/>
<path d="M181.103 90.7611V87.6391H177.981V90.7611H181.103Z" fill="#89584E"/>
<path d="M181.103 81.3966V78.2746H177.981V81.3966H181.103Z" fill="#89584E"/>
<path d="M181.103 78.2751V75.1531H177.981V78.2751H181.103Z" fill="#89584E"/>
<path d="M181.103 75.1536V72.0316H177.981V75.1536H181.103Z" fill="#89584E"/>
<path d="M181.103 72.0321V68.9101H177.981V72.0321H181.103Z" fill="#89584E"/>
<path d="M181.103 68.9106V65.7886H177.981V68.9106H181.103Z" fill="#89584E"/>
<path d="M181.103 65.7891V62.6671H177.981V65.7891H181.103Z" fill="#89584E"/>
<path d="M181.103 62.6676V59.5456H177.981V62.6676H181.103Z" fill="#89584E"/>
<path d="M264.447 63.173V51.083H252.357" stroke="#89584E" stroke-miterlimit="10" stroke-linecap="round" stroke-linejoin="round"/>
<path d="M264.447 133.956V146.046H252.357" stroke="#89584E" stroke-miterlimit="10" stroke-linecap="round" stroke-linejoin="round"/>
<path d="M169.553 63.173V51.083H181.643" stroke="#89584E" stroke-miterlimit="10" stroke-linecap="round" stroke-linejoin="round"/>
<path d="M169.553 133.956V146.046H181.643" stroke="#89584E" stroke-miterlimit="10" stroke-linecap="round" stroke-linejoin="round"/>
<path d="M358.099 97.935C358.302 102.035 358.779 105.737 359.451 109.068C359.451 109.068 356.12 119.936 359.318 134.708C356.438 129.354 353.222 119.299 351.348 113.026H351.339C350.367 109.748 349.757 107.504 349.757 107.504L350.702 105.975L355.12 98.836L357.983 94.206C357.993 95.487 358.028 96.724 358.099 97.935Z" fill="black"/>
<path d="M351.349 113.025H351.34C350.147 112.804 348.857 112.769 347.7 112.698C342.328 112.371 336.965 113.043 331.584 113.767C329.525 114.041 327.458 114.332 325.399 114.571C322.819 114.871 320.239 115.092 317.659 115.145C314.045 115.216 309.301 115.366 305.395 114.085C305.581 114.73 305.731 115.375 305.828 116.038C307.259 125.571 306.066 132.843 305.528 135.37C305.395 135.997 305.307 136.333 305.307 136.333C303.125 141.996 303.849 143.772 303.849 143.772C304.671 143.295 305.484 142.862 306.27 142.473C307.366 141.925 308.435 141.466 309.46 141.068C314.62 139.062 320.239 139.036 325.479 140.626C326.689 140.988 327.882 141.439 329.04 141.978C329.888 142.367 330.701 142.676 331.488 142.923C334.28 143.806 337.24 143.842 340.138 143.444C340.924 143.338 341.711 143.303 342.471 143.32C343.143 143.338 343.814 143.391 344.477 143.488C346.907 143.85 349.248 144.76 351.316 146.103C352.094 146.607 352.853 147.031 353.587 147.393C354.842 148.003 356.043 148.436 357.148 148.718C361.345 149.822 364.269 148.965 364.269 148.965C361.848 143.982 360.284 139.166 359.321 134.705C356.438 129.353 353.222 119.299 351.349 113.025ZM369.841 84.734C369.814 84.063 369.788 83.391 369.708 82.728C369.107 77.462 367.119 74.202 364.663 72.223C361.685 69.82 358.036 69.272 355.35 69.263C351.48 81.544 338.412 85.423 331.803 86.616C328.72 87.173 325.539 87.022 322.579 85.989C314.291 83.117 314.212 76.491 314.212 76.252C313.7 76.384 313.169 76.482 312.648 76.561C310.969 76.808 307.373 77.586 304.192 80.175C301.444 82.41 298.997 86.006 298.396 91.794C298.626 91.847 302.769 92.704 306.922 94.118C306.648 95.761 306.242 97.378 305.738 98.969C305.579 99.481 305.411 99.994 305.226 100.506C308.742 100.338 312.277 101.098 315.714 101.725C320.088 102.511 324.788 103.501 329.223 102.706C329.488 102.662 329.753 102.609 330.018 102.538C335.673 101.345 340.735 98.315 346.637 97.855C348.881 97.678 352.486 97.749 355.119 98.836L357.982 94.206C357.982 93.888 357.973 93.561 357.973 93.243H357.982C357.982 93.243 364.423 87.553 370.078 88.949C369.938 87.129 369.868 85.636 369.841 84.734Z" fill="#1B8AF9"/>
<path d="M349.758 107.503L350.703 105.974C346.524 105.267 341.991 105.656 338.263 106.575C334.667 107.459 331.177 108.731 327.581 109.588H327.572C326.821 109.774 326.07 109.941 325.31 110.074C319.037 111.205 309.892 110.878 303.973 107.211C303.964 109.641 304.477 111.496 304.901 112.609C305.086 113.095 305.246 113.59 305.387 114.084H305.396C309.301 115.365 314.046 115.215 317.66 115.144C320.24 115.091 322.82 114.87 325.4 114.57C327.459 114.331 329.526 114.04 331.585 113.766C336.966 113.041 342.329 112.37 347.701 112.697C348.859 112.768 350.149 112.803 351.341 113.024C350.368 109.747 349.758 107.503 349.758 107.503Z" fill="#FF7159"/>
<path d="M346.639 97.855C340.737 98.314 335.674 101.345 330.02 102.538C329.755 102.609 329.49 102.662 329.225 102.706C324.79 103.501 320.089 102.512 315.716 101.725C312.279 101.098 308.745 100.338 305.228 100.506C305.21 100.559 305.193 100.612 305.175 100.665C304.291 103.139 303.973 105.348 303.973 107.212C309.893 110.879 319.037 111.206 325.31 110.075C326.07 109.942 326.821 109.775 327.572 109.589H327.581C331.177 108.732 334.667 107.46 338.263 106.576C341.992 105.657 346.524 105.268 350.703 105.975L355.121 98.836C352.489 97.749 348.884 97.678 346.639 97.855ZM306.924 94.118C302.771 92.704 298.627 91.847 298.398 91.794C298.301 92.695 298.248 93.649 298.248 94.665C298.407 95.213 298.575 95.787 298.752 96.397C298.752 96.397 303.417 96.644 305.741 98.968C306.244 97.378 306.65 95.761 306.924 94.118ZM370.08 88.949C364.425 87.553 357.984 93.243 357.984 93.243H357.975C357.975 93.561 357.984 93.888 357.984 94.206C357.993 95.487 358.028 96.724 358.099 97.935C358.099 97.935 360.007 96.318 362.976 94.834C365.044 93.774 367.632 92.775 370.433 92.431C370.283 91.202 370.168 90.018 370.08 88.949ZM351.322 69.361C346.1 81.395 331.645 82.57 331.645 82.57C319.761 84.01 316.793 75.325 316.793 75.325C315.971 75.731 315.105 76.032 314.213 76.253C314.213 76.491 314.292 83.118 322.58 85.99C325.54 87.024 328.721 87.174 331.804 86.617C338.413 85.424 351.481 81.546 355.351 69.264C354.6 69.255 353.929 69.299 353.363 69.352C352.683 69.414 351.994 69.423 351.322 69.361Z" fill="white"/>
<path d="M358.236 100.122C358.077 99.355 357.974 98.582 357.852 97.808C357.77 97.032 357.692 96.254 357.635 95.474C357.489 93.913 357.48 92.357 357.508 90.793C357.601 87.672 357.918 84.554 358.656 81.509C358.705 84.64 358.572 87.726 358.507 90.819C358.459 92.361 358.425 93.915 358.412 95.459C358.381 97.005 358.314 98.558 358.236 100.122Z" fill="black"/>
<path d="M307.34 90.787C307.317 92.78 307.212 94.805 306.767 96.772C306.389 98.746 305.631 100.664 305.12 102.516C304.607 104.392 304.352 106.329 304.395 108.276C304.42 109.248 304.515 110.222 304.705 111.184C304.873 112.143 305.205 113.099 305.387 114.087C305.179 113.629 304.981 113.173 304.796 112.716C304.587 112.26 304.392 111.789 304.231 111.308C303.919 110.343 303.712 109.34 303.616 108.324C303.407 106.294 303.633 104.224 304.154 102.258C304.725 100.278 305.484 98.496 306.012 96.585C306.574 94.693 306.932 92.749 307.34 90.787Z" fill="black"/>
<path d="M356.244 308.863L357.595 311.292L348.999 316.293L346.949 312.724L356.244 308.863Z" fill="#FCACA4"/>
<path d="M369.391 322.54C370.248 323.759 370.142 325.412 369.126 326.498L349.123 348.109C348.01 349.302 346.596 350.185 345.032 350.654L340.862 351.9C340.429 352.033 339.978 352.13 339.528 352.174C326.363 353.544 328.192 348.454 328.192 348.454C328.112 347.146 328.501 345.962 329.19 344.893C329.19 344.893 330.056 349.443 339.996 346.678L344.661 345.07C346.472 344.434 348.089 343.347 349.344 341.889L367.916 320.445L369.391 322.54Z" fill="white"/>
<path d="M367.915 320.446L349.343 341.89C348.088 343.348 346.471 344.435 344.66 345.071L339.995 346.679C330.055 349.445 329.189 344.894 329.189 344.894C329.772 343.975 330.576 343.145 331.477 342.411C333.43 341.351 347.884 339.001 347.884 339.001C342.273 335.52 345.145 320.04 345.445 318.467C345.445 318.467 345.445 318.467 345.445 318.458C345.463 318.387 345.471 318.343 345.471 318.343L348.996 316.293L357.593 311.292L360.323 309.702L367.915 320.446Z" fill="#1B8AF9"/>
<path d="M345.447 318.467C345.147 320.04 342.275 335.519 347.886 339.001C347.886 339.001 333.431 341.351 331.479 342.411C334.951 339.557 339.943 338.055 339.943 338.055C340.702 335.749 345.014 320.022 345.447 318.467Z" fill="black"/>
<path d="M290.596 224.431L292.054 227.665L282.079 232.807L280.206 228.239V228.231L290.596 224.431Z" fill="#FCACA4"/>
<path d="M305.237 243.516C305.697 244.62 305.405 245.893 304.495 246.679L286.488 262.247C276.08 268.829 268.958 271.365 265.221 272.337C262.632 273.017 259.831 271.701 258.965 269.165C258.603 268.087 258.656 267.036 258.956 266.055C258.956 266.055 259.53 270.305 272.518 265.207C272.518 265.207 281.884 260.595 287.149 255.329L303.874 240.795C304.486 241.819 304.927 242.756 305.237 243.516Z" fill="white"/>
<path d="M303.876 240.794L287.151 255.328C281.885 260.594 272.52 265.206 272.52 265.206C259.532 270.304 258.958 266.054 258.958 266.054C260.054 262.485 264.445 259.772 264.445 259.772C265.823 258.712 267.078 257.634 268.209 256.574C272.927 256.574 284.961 247.553 284.961 247.553C282.708 247.553 277.628 242.358 277.628 242.358C279.201 237.658 278.927 234.441 278.927 234.441L282.081 232.806L292.056 227.664L294.556 226.374L296.668 231.198C297.472 233.036 298.674 234.67 300.123 236.057C301.791 237.658 303.01 239.319 303.876 240.794Z" fill="#1B8AF9"/>
<path d="M277.626 242.358C277.626 242.358 282.706 247.553 284.959 247.553C284.959 247.553 272.925 256.574 268.207 256.574C273.588 251.468 276.283 246.37 277.626 242.358Z" fill="black"/>
<path d="M359.274 171.101C360.732 159.615 357.145 148.721 357.145 148.721C356.041 148.438 354.839 148.005 353.584 147.396C352.851 147.034 352.091 146.61 351.313 146.106C349.245 144.763 346.904 143.853 344.474 143.491C343.811 143.394 343.14 143.341 342.468 143.323C341.708 143.305 340.922 143.341 340.135 143.447C337.237 143.845 334.277 143.809 331.485 142.926C330.699 142.679 329.886 142.369 329.037 141.981C327.88 141.442 326.687 140.991 325.476 140.629C320.237 139.039 314.617 139.065 309.457 141.071C308.432 141.469 307.363 141.928 306.267 142.476L309.324 150.878C308.373 150.771 307.417 150.664 306.459 150.557C289.356 148.645 271.616 146.743 268.328 146.743C268.328 146.743 248.404 146.001 252.972 164.882L275.803 223.187L284.957 219.573L291.159 217.125C289.18 209.288 285.964 196.114 284.462 187.73C284.17 186.06 283.967 184.372 283.817 182.676C283.755 182.004 283.649 181.121 283.455 180.096L300.896 189.037C301.594 189.399 302.31 189.744 303.043 190.053C304.607 190.716 306.171 191.308 307.708 191.811V191.82C302.142 225.677 332.156 288.365 341.972 307.697L347.424 305.046L356.03 300.858L343.404 256.681C332.289 228.655 340.753 193.667 340.753 193.667C350.518 190.3 357.913 181.756 359.274 171.101Z" fill="#FF7159"/>
<path d="M356.032 300.858L358.1 308.094L356.245 308.863L346.95 312.724L345.006 313.528C345.006 313.528 343.866 311.416 341.975 307.697L347.427 305.046L356.032 300.858Z" fill="#D84835"/>
<path d="M325.479 140.627L314.947 151.512C313.109 151.309 311.227 151.088 309.328 150.876L306.271 142.474C307.367 141.926 308.436 141.467 309.461 141.069C314.62 139.064 320.239 139.037 325.479 140.627Z" fill="black"/>
<path d="M292.823 223.618L290.596 224.431L280.206 228.23L278.085 229.007L275.805 223.184L284.959 219.57L291.162 217.122C292.143 221.039 292.823 223.618 292.823 223.618Z" fill="#D84835"/>
<path d="M284.465 187.729C284.17 186.304 283.937 184.864 283.67 183.423L283.307 181.281C283.195 180.571 283.064 179.865 282.872 179.171C282.136 176.398 281.099 173.699 279.602 171.267C278.143 168.814 276.255 166.63 274.06 164.791C273.531 164.304 272.927 163.915 272.363 163.469L270.533 162.321C269.318 161.533 267.999 160.925 266.671 160.322C269.471 161.123 272.175 162.402 274.538 164.187C276.922 165.943 278.925 168.213 280.46 170.751C281.995 173.293 283.045 176.11 283.62 179.001C284.107 181.934 284.272 184.813 284.465 187.729Z" fill="black"/>
<path d="M340.755 154.508C338.112 154.409 335.482 154.201 332.854 153.977C330.225 153.764 327.605 153.473 324.985 153.181C322.368 152.866 319.751 152.549 317.142 152.155L313.229 151.565C311.929 151.334 310.624 151.138 309.327 150.877C311.97 150.969 314.601 151.163 317.229 151.391C319.858 151.605 322.479 151.896 325.099 152.189C327.717 152.505 330.334 152.822 332.943 153.217C335.553 153.599 338.16 153.999 340.755 154.508Z" fill="black"/>
<path d="M345.716 191.398C342.47 193.516 338.712 194.886 334.826 195.415C332.876 195.697 330.931 195.703 328.986 195.73C327.04 195.734 325.093 195.661 323.151 195.508C319.276 195.132 315.419 194.473 311.677 193.4C309.812 192.844 307.956 192.264 306.17 191.491L303.488 190.36C302.591 189.994 301.756 189.48 300.9 189.036C301.807 189.384 302.672 189.812 303.59 190.115L306.337 191.03C308.141 191.703 310.01 192.197 311.875 192.656C315.612 193.563 319.408 194.218 323.239 194.512C327.055 194.868 330.935 194.936 334.739 194.654C336.64 194.48 338.525 194.106 340.359 193.544C342.205 193.017 343.987 192.271 345.716 191.398Z" fill="black"/>
<path d="M320.531 195.283C320.531 195.283 317.757 245.716 347.426 305.045" stroke="#B53C2C" stroke-width="0.5" stroke-miterlimit="10" stroke-linecap="round" stroke-linejoin="round"/>
<path d="M270.301 161.903C270.301 161.903 271.556 164.783 273.067 168.697C275.726 175.606 277.22 182.949 277.175 190.361C277.149 193.551 277.573 197.668 279.189 202.033L284.959 219.571" stroke="#B53C2C" stroke-width="0.5" stroke-miterlimit="10" stroke-linecap="round" stroke-linejoin="round"/>
<path d="M353.584 147.387C353.584 147.387 353.584 147.387 353.584 147.396C353.61 147.635 354.026 152.361 352.577 157.654C350.509 165.235 344.599 173.982 328.2 172.347C326.61 172.188 325.046 171.817 323.535 171.287C314.47 168.15 277.874 156.055 272.519 163.194" stroke="#B53C2C" stroke-width="0.5" stroke-miterlimit="10" stroke-linecap="round" stroke-linejoin="round"/>
<path d="M344.431 143.773C344.288 145.288 344.343 146.791 344.528 148.248C344.737 149.702 345.137 151.116 345.826 152.371C346.484 153.641 347.448 154.747 348.637 155.582C349.193 156.061 349.869 156.36 350.511 156.739C351.165 157.1 351.887 157.31 352.578 157.653C351.833 157.53 351.067 157.41 350.327 157.193C349.611 156.91 348.85 156.688 348.204 156.23C347.495 155.87 346.929 155.309 346.332 154.781C345.821 154.175 345.303 153.559 344.946 152.844C344.198 151.439 343.811 149.87 343.754 148.315C343.691 146.763 343.909 145.208 344.431 143.773Z" fill="black"/>
<path d="M331.425 97.148C331.272 98.226 331.05 99.293 330.817 100.357C330.578 101.419 330.347 102.488 329.991 103.518C329.331 105.593 328.698 107.684 328 109.754C327.942 109.926 327.783 110.035 327.611 110.038H327.581H327.572L327.991 109.752C327.143 111.746 326.334 113.764 325.391 115.717C324.408 117.652 323.337 119.548 322.123 121.352C320.923 123.166 319.544 124.86 318.063 126.448C316.575 128.031 314.895 129.436 313.083 130.607C314.746 129.227 316.243 127.688 317.627 126.058C319.005 124.421 320.221 122.66 321.37 120.861C322.494 119.045 323.554 117.188 324.498 115.268C325.453 113.353 326.241 111.362 327.154 109.424L327.171 109.389C327.247 109.229 327.407 109.136 327.573 109.138H327.582L327.164 109.422C327.886 107.387 328.672 105.373 329.432 103.343C329.831 102.335 330.145 101.297 330.489 100.268C330.816 99.234 331.127 98.195 331.425 97.148Z" fill="black"/>
<path d="M332.565 111.117C332.246 112.278 331.898 113.441 331.519 114.59C331.113 115.728 330.681 116.859 330.219 117.978C329.301 120.219 328.219 122.393 327.016 124.502C325.792 126.597 324.446 128.633 322.868 130.49C321.3 132.345 319.54 134.073 317.492 135.37L318.797 134.121C319.204 133.678 319.624 133.252 320.015 132.799C320.809 131.905 321.561 130.977 322.265 130.013C323.669 128.084 324.965 126.077 326.152 124.002C327.358 121.938 328.449 119.806 329.523 117.661C330.601 115.516 331.551 113.314 332.565 111.117Z" fill="black"/>
<path d="M353.266 42.227C352.895 41.644 352.276 41.184 351.322 40.972C349.316 39.885 349.042 37.402 349.078 35.892C349.096 35.238 348.672 34.664 348.053 34.487C347.823 34.425 347.611 34.346 347.408 34.249C345.968 33.586 344.377 32.208 344.669 30.644C345.173 27.94 343.406 27.817 343.406 27.817C339.333 26.81 338.803 25.007 338.82 24.115C338.299 25.696 335.524 25.847 335.524 25.847C334.596 25.847 333.81 26.43 333.236 27.066C332.591 27.782 332.238 28.692 332.061 29.646C331.796 31.166 330.912 32.155 330.029 32.791C329.172 33.409 328.121 33.71 327.06 33.798C324.48 34.028 323.04 36.192 322.925 36.369C322.916 36.378 322.916 36.378 322.916 36.378C322.395 38.172 322.236 39.417 322.236 39.417C321.503 39.532 320.92 39.77 320.46 40.089C318.198 41.591 318.808 44.869 318.808 44.869C319.205 47.714 321.936 48.006 323.014 48.006C323.014 48.006 323.005 57.248 323.597 63.972C323.597 63.972 323.959 68.876 320.408 72.684C319.498 73.674 318.314 74.592 316.794 75.326C316.794 75.326 319.763 84.011 331.646 82.571C331.646 82.571 346.101 81.396 351.323 69.362C350.528 69.3 349.75 69.141 349.008 68.894C348.575 68.753 348.16 68.576 347.753 68.364C345.765 67.348 343.706 65.546 343.406 62.409L343.212 62.25C344.051 61.278 344.838 60.103 345.509 58.68C346.119 57.39 346.525 56.003 346.826 54.607L348.01 48.97C348.01 48.97 351.906 50.437 353.276 47.115C353.275 47.113 354.468 44.074 353.266 42.227Z" fill="#FCACA4"/>
<path d="M339.854 54.385C339.854 54.385 339.801 54.951 339.571 55.728C333.634 52.768 328.774 54.553 328.774 54.553C328.73 54.067 328.712 53.528 328.73 52.954C328.73 52.954 335.012 50.179 339.854 54.385Z" fill="white"/>
<path d="M339.571 55.728C339.085 57.345 337.822 59.881 334.641 60.296C333.961 60.375 333.263 60.323 332.618 60.102C331.266 59.651 329.128 58.335 328.775 54.553C328.775 54.553 333.634 52.768 339.571 55.728Z" fill="black"/>
<path d="M339.147 18.601C339.147 18.601 359.999 20.165 353.266 42.227C352.895 41.644 352.276 41.184 351.322 40.972C352.957 31.05 347.373 26.659 343.344 24.821C341.93 24.167 340.428 23.752 338.9 23.584C338.9 23.575 338.9 23.575 338.9 23.575C337.689 23.434 336.47 23.451 335.269 23.637C327.397 24.83 324.154 32.128 322.926 36.369C322.917 36.378 322.917 36.378 322.917 36.378C322.396 38.172 322.237 39.417 322.237 39.417C321.504 39.532 320.921 39.77 320.461 40.089L320.452 40.08C319.895 16.039 339.147 18.601 339.147 18.601Z" fill="#FF7159"/>
<path d="M347.753 68.362C348.159 68.574 348.575 68.751 349.008 68.892C335.463 74.706 329.261 67.151 327.299 63.829C328.235 65.128 330.321 66.842 334.747 66.842C334.747 66.842 339.483 66.559 343.211 62.248L343.405 62.407C343.706 65.544 345.765 67.346 347.753 68.362Z" fill="black"/>
<path d="M344.669 30.644C344.377 32.208 345.968 33.586 347.408 34.249C347.611 34.346 347.823 34.426 348.053 34.487C348.671 34.664 349.096 35.238 349.078 35.892C349.043 37.403 349.316 39.886 351.322 40.972C352.956 31.05 347.373 26.659 343.344 24.821C341.93 24.167 340.428 23.752 338.9 23.584C338.9 23.769 338.874 23.946 338.821 24.105C338.83 23.822 338.883 23.628 338.9 23.584C338.9 23.575 338.9 23.575 338.9 23.575C337.69 23.434 336.47 23.451 335.269 23.637C327.397 24.83 324.154 32.128 322.926 36.369C323.041 36.192 324.481 34.028 327.061 33.798C328.121 33.71 329.173 33.409 330.03 32.791C330.913 32.155 331.797 31.165 332.062 29.646C332.239 28.692 332.592 27.782 333.237 27.066C333.811 26.43 334.598 25.847 335.525 25.847C335.525 25.847 338.299 25.697 338.821 24.115C338.803 25.007 339.333 26.81 343.407 27.817C343.406 27.817 345.173 27.94 344.669 30.644ZM368.304 55.684C369.55 53.882 369.647 50.515 368.861 48.554C368.075 46.601 365.786 45.532 365.309 43.491C364.858 41.521 366.254 39.55 366.387 37.615C366.502 36.051 366.52 33.957 365.486 32.632C364.479 31.342 362.597 30.98 361.793 29.469C360.927 27.834 361.378 25.661 360.927 23.903C359.823 19.609 356.341 18.292 352.259 18.469C350.669 18.548 348.089 18.973 346.763 17.815C345.924 17.073 345.641 15.597 344.969 14.714C343.105 12.258 340.216 13.557 337.724 14.087C335.895 12.523 332.326 10.191 329.781 11.542C328.438 12.258 327.952 13.68 327.334 14.882C326.088 17.268 325.735 17.047 323.234 17.162C319.435 17.339 316.793 19.141 316.086 22.772C315.786 24.318 315.476 25.007 314.469 26.289C313.736 27.226 313.153 27.853 312.092 28.383C310.996 28.922 309.609 29.072 308.682 29.92C305.289 33.012 309.256 38.057 306.915 41.565C305.89 43.102 304.344 43.482 303.725 45.267C302.992 47.352 303.062 49.11 304.264 50.939C304.962 51.999 305.527 52.503 305.413 53.819C305.272 55.356 304.105 56.567 303.884 58.06C303.699 59.376 304.246 60.507 305.545 61.135C306.826 61.762 309.353 61.011 310.042 62.416C310.793 63.945 309.468 66.357 310.289 68C311.066 69.564 312.966 69.529 314.495 69.599C315.264 69.634 316.174 69.431 316.916 69.617C318.144 69.909 318.268 70.695 318.975 71.587C319.222 71.896 319.753 72.303 320.406 72.683C323.958 68.875 323.595 63.971 323.595 63.971C323.003 57.247 323.012 48.005 323.012 48.005C321.934 48.005 319.204 47.713 318.806 44.868C318.806 44.868 318.196 41.59 320.458 40.088L320.449 40.079C319.892 16.038 339.145 18.6 339.145 18.6C339.145 18.6 359.997 20.164 353.264 42.226C354.466 44.073 353.273 47.112 353.273 47.112C351.903 50.434 348.007 48.967 348.007 48.967L346.823 54.604C346.523 56 346.116 57.387 345.506 58.677C344.835 60.1 344.048 61.275 343.209 62.247L343.403 62.406C343.703 65.543 345.762 67.345 347.75 68.361C348.156 68.573 348.572 68.75 349.005 68.891C349.747 69.138 350.525 69.297 351.32 69.359C351.991 69.421 352.681 69.412 353.361 69.35C353.927 69.297 354.598 69.253 355.349 69.262C358.035 69.271 361.684 69.819 364.662 72.222C364.918 71.877 365.095 71.551 365.166 71.259C365.652 69.218 366.253 68.317 367.366 66.62C367.984 65.684 368.196 64.685 368.108 63.572C367.975 61.849 366.862 61.266 366.244 59.773C365.424 57.804 367.323 57.097 368.304 55.684Z" fill="#562209"/>
<path d="M342.637 40.973C343.335 40.973 343.892 41.538 343.892 42.228C343.892 42.926 343.335 43.483 342.637 43.483C341.948 43.483 341.382 42.926 341.382 42.228C341.382 41.538 341.948 40.973 342.637 40.973Z" fill="black"/>
<path d="M330.32 38.826C331.018 38.826 331.575 39.391 331.575 40.081C331.575 40.779 331.018 41.344 330.32 41.344C329.631 41.344 329.065 40.779 329.065 40.081C329.066 39.391 329.631 38.826 330.32 38.826Z" fill="black"/>
<path d="M332.149 47.157C333.293 47.728 334.338 48.194 335.439 48.374C335.983 48.483 336.538 48.504 337.107 48.459C337.684 48.436 338.253 48.292 338.9 48.191C338.459 48.654 337.902 49.04 337.261 49.225C336.629 49.447 335.93 49.473 335.267 49.359C334.605 49.234 333.972 48.979 333.438 48.597C332.903 48.219 332.437 47.743 332.149 47.157Z" fill="black"/>
<path d="M339.854 38.826C341.222 37.97 342.92 37.625 344.57 37.857C345.396 37.971 346.2 38.29 346.888 38.755C347.603 39.192 348.115 39.877 348.522 40.559C347.886 40.059 347.287 39.573 346.593 39.261C345.913 38.941 345.204 38.689 344.457 38.599C343.716 38.482 342.955 38.471 342.187 38.515C341.419 38.572 340.641 38.662 339.854 38.826Z" fill="black"/>
<path d="M334.747 38.181C334.028 37.822 333.298 37.537 332.573 37.285C331.842 37.047 331.103 36.864 330.357 36.791C329.611 36.69 328.862 36.753 328.124 36.892C327.374 37.019 326.672 37.337 325.93 37.66C326.495 37.104 327.164 36.57 327.966 36.328C328.749 36.052 329.607 35.947 330.435 36.045C332.089 36.238 333.644 37.004 334.747 38.181Z" fill="black"/>
<path d="M330.933 43.912C330.933 44.484 329.966 44.947 328.774 44.947C327.582 44.947 326.615 44.484 326.615 43.912C326.615 43.34 327.582 42.877 328.774 42.877C329.967 42.877 330.933 43.34 330.933 43.912Z" fill="#E28681"/>
<path d="M346.219 47.267C346.025 47.805 344.959 47.914 343.837 47.51C342.715 47.107 341.962 46.343 342.156 45.805C342.349 45.267 343.416 45.158 344.538 45.562C345.66 45.966 346.413 46.729 346.219 47.267Z" fill="#E28681"/>
<path d="M386.567 62.84L379.896 59.288C378.809 58.714 377.493 58.837 376.539 59.606L373.906 61.744C373.04 62.442 372.819 63.661 373.376 64.624L374.127 65.905V65.914C373.933 66.692 373.791 67.557 373.827 68.423C373.862 69.183 374.348 69.846 375.073 70.093C375.073 70.093 374.834 73.831 377.582 77.25C378.139 77.939 378.474 78.77 378.519 79.653C378.616 81.738 378.74 85.802 378.457 90.123C378.148 94.832 376.946 99.427 375.011 103.721C374.772 104.251 374.525 104.825 374.26 105.444C373.854 104.896 373.491 104.26 373.156 103.553C371.716 100.522 370.894 96.237 370.435 92.429C367.634 92.774 365.045 93.772 362.978 94.832C360.009 96.316 358.101 97.933 358.101 97.933C358.304 102.033 358.781 105.735 359.453 109.066C362.042 122.028 367.44 129.343 370.533 132.63C372.486 134.698 375.34 135.758 378.131 135.245C380.375 134.83 382.054 133.584 383.273 132.197C385.075 130.129 386.039 127.461 386.18 124.722L387.346 102.024L387.823 72.991L388.327 66.002C388.413 64.696 387.733 63.45 386.567 62.84Z" fill="#FCACA4"/>
<path d="M373.155 103.554L362.977 94.834C365.045 93.774 367.633 92.775 370.434 92.431C370.893 96.238 371.714 100.523 373.155 103.554Z" fill="black"/>
<path d="M382.299 66.189C381.488 66.238 380.682 66.224 379.873 66.243C379.484 66.247 379.034 66.226 378.694 66.245C378.36 66.279 378.042 66.403 377.796 66.615C377.336 67.011 377.041 67.805 376.882 68.492C376.812 68.849 376.766 69.21 376.778 69.571C376.794 69.927 376.834 70.317 376.946 70.585C377.059 70.881 377.244 71.149 377.501 71.387L378.373 72.218L378.802 72.641C378.898 72.736 379.003 72.802 379.127 72.839C379.372 72.914 379.657 72.862 379.861 72.69C380.074 72.512 380.179 72.225 380.139 71.931C380.12 71.785 380.062 71.641 379.971 71.52C379.868 71.393 379.695 71.218 379.579 71.025C379.346 70.638 379.234 70.192 379.258 69.761C379.291 69.322 379.417 68.959 379.507 68.556C379.525 68.954 379.487 69.385 379.523 69.752C379.572 70.127 379.739 70.473 379.976 70.738C380.093 70.875 380.22 70.972 380.396 71.135C380.575 71.313 380.707 71.539 380.777 71.785C380.925 72.277 380.778 72.862 380.409 73.245C380.04 73.645 379.446 73.822 378.91 73.688C378.643 73.629 378.387 73.49 378.186 73.313L377.731 72.914L376.835 72.101C376.496 71.798 376.192 71.4 376.014 70.945C375.717 69.998 375.757 69.147 375.964 68.271C376.079 67.845 376.242 67.437 376.448 67.054C376.633 66.69 376.925 66.252 377.333 65.989C377.73 65.717 378.211 65.57 378.682 65.59C379.146 65.63 379.498 65.697 379.912 65.754C380.707 65.902 381.506 66.014 382.299 66.189Z" fill="black"/>
<path d="M381.045 63.609C379.636 63.771 378.235 63.792 376.836 63.792C376.167 63.736 375.688 63.944 375.296 64.339C375.108 64.549 374.993 64.749 374.905 65.067L374.598 66.025L374.612 65.907V65.916V65.923C374.612 65.96 374.606 65.999 374.598 66.034C374.48 66.506 374.363 66.976 374.297 67.452C374.248 67.92 374.159 68.434 374.252 68.807C374.338 69.211 374.597 69.588 374.98 69.829C375.386 70.061 375.863 70.251 376.363 70.344C375.851 70.427 375.324 70.377 374.801 70.214C374.26 70.035 373.8 69.584 373.581 69.023C373.371 68.421 373.405 67.897 373.423 67.365C373.457 66.834 373.531 66.308 373.657 65.799L373.643 65.917V65.908V65.898C373.643 65.861 373.648 65.824 373.658 65.79L373.963 64.743C374.058 64.386 374.298 63.96 374.594 63.666C374.895 63.361 375.27 63.123 375.683 63.011C376.071 62.881 376.577 62.904 376.886 62.946C378.274 63.107 379.663 63.288 381.045 63.609Z" fill="black"/>
<path d="M375.01 103.722C373.987 106.956 372.907 110.12 372.145 113.364C371.752 114.98 371.448 116.614 371.263 118.261C371.096 119.908 371.034 121.573 371.255 123.257C370.653 121.666 370.441 119.923 370.484 118.211C370.514 116.493 370.787 114.793 371.173 113.131C371.58 111.473 372.1 109.848 372.745 108.276C373.374 106.698 374.15 105.182 375.01 103.722Z" fill="black"/>
<path d="M305.829 116.038C305.732 115.375 305.582 114.73 305.396 114.085H305.387C305.246 113.59 305.086 113.096 304.901 112.61C304.477 111.497 303.964 109.641 303.973 107.212C303.973 105.348 304.291 103.139 305.175 100.665C305.193 100.612 305.21 100.559 305.228 100.506C305.413 99.993 305.581 99.481 305.74 98.969C303.416 96.645 298.751 96.398 298.751 96.398C298.574 95.788 298.406 95.214 298.247 94.666C297.593 92.413 297.063 90.699 296.772 89.762C296.613 89.241 296.586 88.684 296.71 88.154L296.922 87.2C297.108 86.361 297.002 85.486 296.604 84.726L294.431 80.52V80.502L289.607 81.854L287.363 82.481L287.319 82.34C287.443 82.234 287.575 82.137 287.717 82.057C287.717 82.039 287.708 82.022 287.699 82.004C287.186 80.714 288.035 79.291 289.395 79.026L291.957 78.522C292.796 78.363 293.397 77.612 293.397 76.773V76.649C293.326 75.748 292.611 75.05 291.586 74.988L290.879 74.953C290.04 74.909 289.2 75.033 288.423 75.315C288.653 74.255 290.093 73.46 291.047 73.044C291.533 72.832 291.824 72.355 291.824 71.834V71.746C291.771 71.021 291.144 70.465 290.419 70.509C288.087 70.65 286.187 71.879 286.187 71.879C285.595 72.312 285.136 72.771 284.782 73.24C282.688 75.961 283.969 79.027 283.969 79.027L283.978 79.036C282.246 81.651 282.308 85.177 284.376 87.712C284.403 87.747 284.429 87.774 284.464 87.809C284.181 88.604 283.969 89.284 283.837 89.735C283.705 90.168 283.705 90.627 283.837 91.06C284.164 92.129 285.198 94.073 288.405 95.319C288.856 95.496 289.2 95.858 289.386 96.309C289.845 97.458 290.588 99.923 290.588 103.748C290.588 103.748 290.358 141.378 305.529 135.37C306.067 132.843 307.26 125.572 305.829 116.038Z" fill="#FCACA4"/>
<path d="M305.74 98.968L300.872 104.137C300.13 101.301 299.405 98.659 298.751 96.397C298.751 96.397 303.417 96.645 305.74 98.968Z" fill="black"/>
<path d="M303.735 116.365C303.185 114.726 302.738 113.071 302.215 111.433C301.711 109.791 301.263 108.137 300.827 106.48C299.988 103.158 299.223 99.821 298.751 96.397C299.987 99.618 300.931 102.926 301.799 106.249C302.217 107.915 302.624 109.583 302.973 111.263C303.368 112.933 303.563 114.651 303.735 116.365Z" fill="black"/>
<path d="M287.645 87.403C287.595 86.874 287.692 86.321 288.073 85.857C288.28 85.64 288.581 85.51 288.892 85.505C289.205 85.482 289.527 85.659 289.733 85.773L291.108 86.537C291.478 86.733 291.937 86.704 292.265 86.488C292.597 86.272 292.79 85.898 292.775 85.523C292.764 85.113 292.566 84.903 292.155 84.49C291.456 83.762 290.673 83.004 289.904 82.516C289.181 82.093 288.156 82.17 287.557 82.779C287.262 83.025 286.943 83.514 286.684 83.924C286.419 84.358 286.164 84.806 285.919 85.261C285.449 86.182 285.046 87.144 284.628 88.1L284.035 89.557C283.817 90.029 283.733 90.538 283.837 91.063C283.624 90.581 283.617 89.985 283.782 89.479L284.165 87.938C284.494 86.933 284.824 85.92 285.224 84.929C285.431 84.436 285.66 83.949 285.929 83.478C286.216 82.995 286.433 82.563 286.91 82.087C287.799 81.164 289.301 81.028 290.398 81.647C291.393 82.306 292.112 83.049 292.848 83.849C293.019 84.058 293.202 84.216 293.398 84.541C293.57 84.841 293.655 85.186 293.648 85.524C293.651 86.208 293.232 86.859 292.642 87.155C292.056 87.467 291.323 87.429 290.789 87.08L289.48 86.19C289.25 86.021 289.104 85.905 288.878 85.881C288.664 85.853 288.432 85.912 288.252 86.052C287.917 86.36 287.69 86.887 287.645 87.403Z" fill="black"/>
<path d="M283.145 80.732C283.224 79.853 283.568 79 284.065 78.251C284.306 77.869 284.616 77.526 284.935 77.208L285.892 76.338C286.213 76.073 286.56 75.764 286.963 75.527C287.364 75.299 287.778 75.097 288.221 74.976C289.102 74.72 290.033 74.701 290.879 74.954C290.017 75.118 289.22 75.356 288.501 75.704C287.765 76.073 287.175 76.504 286.541 77.098L285.564 77.913C285.242 78.161 284.963 78.442 284.675 78.733C284.115 79.328 283.616 79.99 283.145 80.732Z" fill="black"/>
<path d="M295.456 53.328L301.96 76.594C302.218 77.518 301.679 78.477 300.755 78.735L294.432 80.503L289.608 81.855C288.972 81.669 288.292 81.749 287.717 82.058C287.717 82.04 287.708 82.023 287.699 82.005C287.187 80.715 288.035 79.293 289.395 79.027L291.957 78.523C292.796 78.364 293.397 77.613 293.397 76.774C293.397 76.73 293.397 76.694 293.397 76.65C293.326 75.749 292.611 75.051 291.586 74.989L290.879 74.954C290.04 74.91 289.2 75.033 288.423 75.316C288.653 74.256 290.093 73.461 291.047 73.045C291.533 72.833 291.825 72.356 291.825 71.835V71.747C291.825 71.029 291.237 70.471 290.519 70.505C288.141 70.617 286.188 71.88 286.188 71.88C285.596 72.313 285.137 72.772 284.783 73.241L280.392 57.544C280.133 56.62 280.673 55.661 281.597 55.403L293.315 52.125C294.238 51.864 295.197 52.404 295.456 53.328Z" fill="#1B8AF9"/>
<path d="M290.344 58.245L288.824 58.608C288.133 58.773 287.438 58.347 287.273 57.656C287.108 56.965 287.534 56.27 288.225 56.105L289.745 55.742C290.436 55.577 291.131 56.003 291.296 56.695C291.461 57.385 291.035 58.08 290.344 58.245Z" fill="black"/>
<path d="M112.303 241.072C112.303 241.072 133.533 260.35 153.09 288.488" stroke="#C69C91" stroke-miterlimit="10" stroke-linecap="round" stroke-linejoin="round"/>
<path d="M132.191 207.061C124.202 201.641 122.968 211.379 122.126 217.002C116.391 203.854 108.984 179.991 93.393 175.435C79.671 171.425 86.91 190.051 88.745 194.8C81.148 188.153 35.109 150.741 29.246 172.971C26.155 184.69 41.966 195.361 49.585 201.041C57.509 206.949 67.151 211.506 74.516 217.982C68.324 216.089 62.63 213.05 55.743 213.474C44.332 214.177 49.979 224.672 56.056 229.273C62.046 233.808 70.438 237.541 79.154 240.002C73.404 240.268 69.387 242.185 70.736 247.803C74.001 261.404 96.694 258.345 106.721 259.13C104.05 259.879 100.121 260.295 98.409 262.788C95.779 266.619 98.557 270.837 102.104 272.504C103.149 272.995 104.743 273.164 106.546 273.222C115.609 273.51 124.351 269.822 130.529 263.186L135.144 258.229C142.461 250.37 145.137 239.359 142.61 228.922C142.597 228.869 142.584 228.815 142.572 228.762C140.805 221.29 139.139 211.775 132.191 207.061Z" fill="#FF7159"/>
<path d="M33.2921 173.144C35.9431 173.568 38.206 175.175 40.326 176.722C42.437 178.329 44.5971 179.832 46.7481 181.395C51.0211 184.532 55.3771 187.567 59.5041 190.901C67.8111 197.499 75.7461 204.554 83.4961 211.788C91.1961 219.079 98.728 226.543 106.096 234.161L117.077 245.654L127.924 257.272L105.547 234.7C98.0701 227.198 90.5531 219.738 82.812 212.516C75.13 205.232 67.2071 198.207 59.0231 191.497C54.9641 188.098 50.6691 185.004 46.4621 181.79C44.3711 180.179 42.2251 178.594 40.1661 176.932C39.1261 176.117 38.0661 175.325 36.9341 174.646C35.8121 173.958 34.5961 173.396 33.2921 173.144Z" fill="#B53C2C"/>
<path d="M161.246 288.488C161.246 288.488 146.9 231.73 129.648 193.657" stroke="#C69C91" stroke-miterlimit="10" stroke-linecap="round" stroke-linejoin="round"/>
<path d="M152.26 186.977C152.157 182.877 152.899 178.732 153.326 174.656C153.791 170.211 156.412 157.347 152.592 153.596C147.161 148.264 142.875 164.207 141.909 167.377C141.3 162.715 141.734 157.389 141.967 152.53C142.213 147.397 143.254 136.712 139.192 132.428C132.283 125.141 130.27 140.172 129.596 144.009C127.972 137.297 128.305 130.284 125.745 123.543C124.025 119.013 120.397 110.217 115.396 106.495C113.25 104.898 110.091 105.867 109.269 108.412C107.62 113.518 108.439 120.162 109.043 124.913C104.454 119.772 98.513 97.832 88.746 99.233C84.623 99.824 83.386 106.499 83.723 110.019C84.267 115.714 88.586 120.839 90.324 126.229C87.07 123.6 77.829 110.921 73.701 119.656C69.957 127.578 83.27 142.395 88.636 146.978C84.708 145.023 71.551 137.735 69.422 145.221C66.515 155.442 86.203 166.686 92.505 171.05C87.84 170.18 74.256 162.074 73.715 169.932C73.066 179.366 91.346 189.342 99.039 191.808C94.418 191.044 80.16 187.511 83.961 196.671C87.532 205.276 104.907 207.517 112.685 210.352C109.706 209.699 101.123 207.491 98.409 211.27C93.92 217.521 108.127 220.222 111.804 221.058C116.546 222.136 122.027 224.184 126.034 227.415C128.631 229.51 132.208 229.917 135.293 228.644L147.081 223.781C150.038 222.561 152.076 219.86 152.57 216.7C153.111 213.241 154.642 209.643 155.814 206.656C158.203 200.571 165.171 192.528 164.55 185.85C163.478 174.323 155.713 183.362 152.26 186.977ZM82.449 158.396C79.088 155.354 77.133 152.553 75.949 148.404C75.715 146.911 80.372 146.918 81.857 147.207C86.347 148.081 90.564 153.33 93.282 156.648C95.051 158.807 99.186 165.809 93.717 165.199C89.764 164.757 85.241 160.923 82.449 158.396ZM96.889 201.134C93.304 198.164 95.23 196.63 98.652 196.215C100.084 196.896 116.484 198.619 112.88 203.751C110.357 207.343 99.337 203.161 96.889 201.134ZM119.738 219.487C117.592 219.558 106.519 217.663 110.675 214.061C112.966 212.075 118.832 213.862 120.838 215.212C123.669 215.596 123.894 219.348 119.738 219.487ZM113.44 190.139C110.891 191.623 105.325 189.172 102.967 188.268C99.579 186.97 85.008 182.21 87.739 176.329C89.563 170.254 109.991 181.511 112.08 183.667C113.748 185.388 116.383 188.426 113.44 190.139ZM85.87 139.642C84.671 138.188 77.075 127.835 81.671 126.804C85.956 123.357 93.313 135.208 94.622 138.444C98.1 147.041 89.244 143.734 85.87 139.642ZM98.973 129.004C94.069 129.213 90.366 119.241 90.512 115.406C90.647 111.851 94.65 110.066 96.46 113.387C98.409 116.006 105.191 128.739 98.973 129.004ZM144.471 169.997C144.671 169.503 145.344 166.048 146.927 165.455C150.351 164.173 150.106 171.004 149.964 172.932C149.746 175.887 145.862 187.979 142.349 180.901C140.822 177.827 142.598 172.63 144.471 169.997ZM131.526 147.156C131.298 147.51 132.328 143.386 134.929 144.405C138.506 145.807 138.218 153.077 138.13 155.941C138.056 158.37 138.116 162.946 135.234 164.078C132.802 165.034 131.524 162.972 130.727 161.001C129.11 157.001 129.26 150.851 131.526 147.156ZM117.896 139.739C112.749 138.759 111.89 125.9 113.132 122.267C114.305 118.834 118.919 118.795 118.935 122.542C119.64 125.214 124.187 140.937 117.896 139.739ZM157.284 196.397C156.526 198.648 150.22 209.478 148.027 203.913C146.818 200.845 150.986 195.38 153.193 193.769C154.699 190.964 158.753 192.037 157.284 196.397Z" fill="#B53C2C"/>
<path d="M101.386 133.99C105.168 140.748 108.759 147.61 112.285 154.506C115.807 161.403 119.189 168.371 122.536 175.356C125.795 182.382 129.029 189.422 132.061 196.551C135.07 203.689 137.958 210.881 140.509 218.194C139.003 214.625 137.579 211.029 136.008 207.491C134.519 203.921 132.92 200.396 131.356 196.858C128.182 189.802 124.96 182.768 121.633 175.782C118.365 168.768 114.973 161.813 111.6 154.847L101.386 133.99Z" fill="#FF7159"/>
<path d="M156.101 286.711C156.101 286.711 155.492 267.461 175.273 241.965" stroke="#C69C91" stroke-miterlimit="10" stroke-linecap="round" stroke-linejoin="round"/>
<path d="M180.614 241.365C177.421 245.524 173.355 247.762 171.532 246.363C169.71 244.964 170.822 240.458 174.015 236.299C177.208 232.14 181.274 229.902 183.096 231.301C184.919 232.699 183.808 237.205 180.614 241.365Z" fill="#C69C91"/>
<path d="M159.081 289.559C159.081 289.559 161.839 276.902 178.921 263.513" stroke="#C69C91" stroke-miterlimit="10" stroke-linecap="round" stroke-linejoin="round"/>
<path d="M182.503 263.996C179.738 266.186 176.719 266.979 175.76 265.768C174.801 264.557 176.264 261.8 179.029 259.61C181.794 257.42 184.813 256.627 185.772 257.838C186.731 259.05 185.268 261.807 182.503 263.996Z" fill="#C69C91"/>
<path d="M190.468 282.485H115.713V294.49H190.468V282.485Z" fill="#1177CC"/>
<path d="M182.473 352.132H123.707L118.871 294.49H187.309L182.473 352.132Z" fill="#1B8AF9"/>
<path d="M118.871 294.49L186.132 308.519L187.309 294.49H118.871Z" fill="black"/>
</svg>
