<svg width="133" height="34" viewBox="0 0 133 34" fill="none" xmlns="http://www.w3.org/2000/svg">
<path d="M122.968 19.809C121.772 18.261 121.772 15.728 122.968 14.18L131.541 3.08203C132.737 1.53403 132.102 0.267029 130.129 0.267029H2.86303C0.891026 0.267029 0.255027 1.53403 1.45103 3.08203L10.024 14.18C11.22 15.728 11.22 18.261 10.024 19.809L1.45103 30.907C0.255027 32.455 0.891026 33.722 2.86303 33.722H130.13C132.103 33.722 132.738 32.455 131.542 30.907L122.968 19.809Z" fill="#F29C50"/>
<path d="M10.024 19.809L1.45103 30.907C0.255027 32.455 0.891026 33.722 2.86303 33.722H130.13C132.103 33.722 132.738 32.455 131.542 30.907L122.969 19.809C122.371 19.035 122.072 18.015 122.072 16.995H10.921C10.921 18.014 10.622 19.035 10.024 19.809Z" fill="#F27825"/>
<path fill-rule="evenodd" clip-rule="evenodd" d="M36.6607 20.8563H35.4065C35.3106 20.6261 35.1868 20.3403 35.0353 19.9986C35.017 19.9576 34.9987 19.9165 34.9804 19.8755C34.8036 19.4789 34.6133 19.0501 34.4096 18.5892C34.2258 18.1735 34.0374 17.7599 33.8443 17.3484C33.8158 17.2876 33.7872 17.2269 33.7585 17.1662C33.528 16.6785 33.3109 16.2176 33.1073 15.7835C32.9036 15.3493 32.7133 14.9608 32.5365 14.6177C32.4948 14.5368 32.4528 14.456 32.4104 14.3754C32.3188 14.2016 32.2387 14.0542 32.1702 13.9334C32.1505 13.8988 32.1306 13.8642 32.1104 13.8299C31.9925 15.0947 31.896 16.4641 31.821 17.938C31.7459 19.4119 31.6816 20.8992 31.628 22.3998H30.1005C30.1434 21.4351 30.1917 20.4624 30.2453 19.4816C30.2989 18.5008 30.3605 17.536 30.4302 16.5874C30.4998 15.6387 30.5749 14.7142 30.6553 13.8138C30.7357 12.9134 30.8241 12.0612 30.9206 11.2573H32.2873C32.5359 11.6626 32.8005 12.1312 33.0809 12.6632C33.1276 12.7518 33.1739 12.8405 33.2198 12.9295C33.5521 13.5726 33.8844 14.2453 34.2167 14.9474C34.549 15.6495 34.8706 16.3516 35.1814 17.0537C35.4923 17.7558 35.7763 18.3962 36.0336 18.9751C36.2909 18.3962 36.5749 17.7558 36.8858 17.0537C37.1966 16.3516 37.5182 15.6495 37.8505 14.9474C38.1828 14.2453 38.5151 13.5726 38.8474 12.9295C38.985 12.6626 39.1263 12.3976 39.2712 12.1345C39.4475 11.815 39.6171 11.5226 39.7799 11.2573H41.1466C41.4723 14.4874 41.7215 17.7247 41.894 20.9666C41.9197 21.4443 41.9439 21.922 41.9666 22.3998H40.4392C40.3856 20.8992 40.3212 19.4119 40.2462 17.938C40.1712 16.4641 40.0747 15.0947 39.9568 13.8299C39.9273 13.8801 39.8983 13.9307 39.8698 13.9815C39.7764 14.1484 39.6634 14.3605 39.5307 14.6177C39.4378 14.7982 39.3467 14.9795 39.2575 15.1618C39.1617 15.3575 39.0625 15.5647 38.9599 15.7835C38.7563 16.2176 38.5392 16.6785 38.3087 17.1662C38.1128 17.5806 37.9214 17.9971 37.7346 18.4157C37.7088 18.4735 37.6831 18.5313 37.6575 18.5892C37.4539 19.0501 37.2636 19.4789 37.0867 19.8755C36.9285 20.2302 36.7982 20.5292 36.6957 20.7725C36.684 20.8004 36.6723 20.8283 36.6607 20.8563ZM116.459 22.3998H115.157C114.937 22.0295 114.686 21.6172 114.405 21.1629C114.385 21.1304 114.365 21.0978 114.345 21.0653C114.039 20.5722 113.71 20.0604 113.356 19.5298C113.002 18.9992 112.635 18.4606 112.255 17.9139C111.874 17.3672 111.496 16.8393 111.121 16.3301C110.746 15.821 110.382 15.3413 110.028 14.8911C109.674 14.4409 109.347 14.0443 109.047 13.7013V22.3998H107.52V11.2573H108.758C109.022 11.5394 109.281 11.8272 109.533 12.1202C109.804 12.4345 110.085 12.7713 110.373 13.1305C110.947 13.8433 111.515 14.5775 112.078 15.3332C112.557 15.976 113.025 16.6271 113.481 17.2862C113.544 17.3773 113.607 17.4687 113.67 17.5601C113.848 17.8206 114.024 18.0827 114.198 18.3462C114.387 18.6335 114.562 18.9059 114.722 19.1635C114.793 19.2771 114.863 19.3911 114.932 19.5057V11.2573H116.459V22.3998ZM28.0586 11.6914L27.5601 12.9616C27.4816 12.9137 27.4004 12.8703 27.3168 12.8317C27.1149 12.7371 26.861 12.6437 26.5552 12.5516C26.3231 12.4829 26.0859 12.433 25.8458 12.4024C25.5837 12.3679 25.303 12.3506 25.0036 12.3506C24.7035 12.3506 24.4248 12.3828 24.1675 12.4471C24.029 12.4811 23.894 12.5277 23.7639 12.5862C23.6695 12.6289 23.5786 12.6792 23.4922 12.7365C23.2993 12.8652 23.1465 13.0286 23.034 13.2269C22.9584 13.3619 22.908 13.5094 22.8851 13.6623C22.8715 13.7497 22.8648 13.838 22.8651 13.9264C22.8651 14.2265 22.9241 14.4784 23.042 14.6821C23.132 14.8358 23.246 14.9741 23.3798 15.0917C23.4312 15.1374 23.4848 15.1804 23.5404 15.2207C23.6669 15.3118 23.7988 15.3951 23.9353 15.4702C24.0505 15.5338 24.1682 15.5927 24.2881 15.6468C24.5722 15.7754 24.8857 15.904 25.2287 16.0327C25.7111 16.2256 26.1532 16.4186 26.5552 16.6115C26.8026 16.7291 27.0391 16.8687 27.2617 17.0284C27.3796 17.1135 27.4926 17.2052 27.6003 17.3029C27.8951 17.5709 28.1229 17.8898 28.2837 18.2596C28.3648 18.4496 28.4242 18.6482 28.4607 18.8516C28.4954 19.0381 28.516 19.2382 28.5226 19.452C28.5241 19.502 28.5248 19.5521 28.5248 19.6021C28.5283 19.9288 28.4817 20.254 28.3867 20.5665C28.2245 21.0852 27.8976 21.5369 27.4556 21.8532C27.1213 22.0939 26.7484 22.276 26.3529 22.3915C25.8081 22.5578 25.1707 22.641 24.4408 22.641C24.0014 22.641 23.5967 22.6115 23.2269 22.5526C23.0565 22.5256 22.8868 22.4945 22.7178 22.4593C22.5579 22.4258 22.4074 22.3898 22.2662 22.3513C22.2568 22.3487 22.2474 22.3462 22.2381 22.3436C22.1345 22.3149 22.0316 22.284 21.9293 22.2508C21.818 22.2146 21.714 22.1773 21.6174 22.139C21.5748 22.1222 21.5324 22.1046 21.4904 22.0863C21.3181 22.0112 21.1768 21.9451 21.0664 21.8882C21.0441 21.8768 21.022 21.8651 21 21.8532L21.4663 20.5669C21.549 20.6131 21.6336 20.6559 21.7198 20.6952C21.8937 20.7754 22.1048 20.8602 22.3532 20.9497C22.4325 20.9782 22.512 21.006 22.5918 21.0331C22.8238 21.1106 23.0619 21.1687 23.3036 21.2066C23.539 21.245 23.7917 21.2702 24.0619 21.2822C24.1881 21.2877 24.3145 21.2905 24.4408 21.2904C24.7293 21.2927 25.0174 21.2713 25.3023 21.2266C26.3573 21.0513 26.8848 20.5152 26.8848 19.6182C26.8856 19.4792 26.8722 19.3405 26.8448 19.2042C26.8122 19.0412 26.7524 18.8849 26.6677 18.7419C26.5375 18.5269 26.3692 18.3373 26.1709 18.1827C26.1414 18.1594 26.1114 18.1368 26.0809 18.1149C25.9045 17.9892 25.7179 17.8786 25.5229 17.7843C25.429 17.7385 25.3336 17.6959 25.2367 17.6566C24.9205 17.528 24.5856 17.3994 24.2318 17.2707C23.8848 17.1526 23.5443 17.0161 23.2118 16.8618C23.1657 16.8404 23.1199 16.8186 23.0742 16.7964C22.8553 16.6911 22.6456 16.5675 22.4474 16.4271C22.3353 16.3473 22.2279 16.2613 22.1255 16.1693C21.8575 15.9282 21.6458 15.6414 21.4904 15.3091C21.3471 15.0028 21.2699 14.6372 21.2587 14.2124C21.2577 14.176 21.2573 14.1396 21.2573 14.1032C21.2539 13.7692 21.2992 13.4364 21.3917 13.1153C21.5407 12.6059 21.8416 12.154 22.2541 11.82C22.6101 11.5328 23.0209 11.3214 23.4615 11.1986C23.9145 11.0662 24.4285 11 25.0036 11C25.3459 10.999 25.6879 11.0195 26.0277 11.0613C26.3031 11.0953 26.576 11.1474 26.8446 11.2171C27.323 11.3425 27.6907 11.4779 27.9478 11.6234C27.9855 11.6447 28.0225 11.6674 28.0586 11.6914ZM84.1893 11.6914L83.6909 12.9616C83.6124 12.9137 83.5311 12.8703 83.4476 12.8317C83.2457 12.7371 82.9918 12.6437 82.686 12.5516C82.4539 12.4829 82.2167 12.433 81.9766 12.4024C81.7145 12.3679 81.4338 12.3506 81.1344 12.3506C80.8342 12.3506 80.5555 12.3828 80.2983 12.4471C80.1598 12.4811 80.0247 12.5277 79.8947 12.5862C79.8002 12.6289 79.7093 12.6792 79.623 12.7365C79.43 12.8652 79.2773 13.0286 79.1647 13.2269C79.0892 13.3619 79.0388 13.5094 79.0158 13.6623C79.0023 13.7497 78.9956 13.838 78.9959 13.9264C78.9959 14.2265 79.0549 14.4784 79.1728 14.6821C79.2628 14.8358 79.3768 14.9741 79.5106 15.0917C79.5619 15.1374 79.6155 15.1804 79.6712 15.2207C79.7976 15.3118 79.9295 15.3951 80.0661 15.4702C80.1813 15.5338 80.299 15.5927 80.4189 15.6468C80.7029 15.7754 81.0165 15.904 81.3595 16.0327C81.8418 16.2256 82.284 16.4186 82.686 16.6115C82.9334 16.7291 83.1699 16.8687 83.3925 17.0284C83.5104 17.1135 83.6234 17.2052 83.7311 17.3029C84.0259 17.5709 84.2536 17.8898 84.4144 18.2596C84.4956 18.4496 84.555 18.6482 84.5915 18.8516C84.6262 19.0381 84.6468 19.2382 84.6534 19.452C84.6549 19.502 84.6556 19.5521 84.6556 19.6021C84.6591 19.9288 84.6125 20.254 84.5175 20.5665C84.3553 21.0852 84.0284 21.5369 83.5864 21.8532C83.2521 22.0939 82.8792 22.276 82.4837 22.3915C81.9388 22.5578 81.3015 22.641 80.5716 22.641C80.1321 22.641 79.7275 22.6115 79.3577 22.5526C79.1873 22.5256 79.0175 22.4945 78.8486 22.4593C78.6887 22.4258 78.5381 22.3898 78.397 22.3513C78.3876 22.3487 78.3782 22.3462 78.3688 22.3436C78.2653 22.3149 78.1623 22.284 78.0601 22.2508C77.9487 22.2146 77.8448 22.1773 77.7482 22.139C77.7056 22.1222 77.6632 22.1046 77.6212 22.0863C77.4489 22.0112 77.3076 21.9451 77.1972 21.8882C77.1749 21.8768 77.1528 21.8651 77.1308 21.8532L77.5971 20.5669C77.6798 20.6131 77.7644 20.6559 77.8506 20.6952C78.0245 20.7754 78.2356 20.8602 78.484 20.9497C78.5632 20.9782 78.6428 21.006 78.7226 21.0331C78.9546 21.1106 79.1927 21.1687 79.4344 21.2066C79.6698 21.245 79.9225 21.2702 80.1926 21.2822C80.3189 21.2877 80.4452 21.2905 80.5716 21.2904C80.86 21.2927 81.1482 21.2713 81.4331 21.2266C82.4881 21.0513 83.0156 20.5152 83.0156 19.6182C83.0164 19.4792 83.003 19.3405 82.9755 19.2042C82.943 19.0412 82.8832 18.8849 82.7985 18.7419C82.6683 18.5269 82.4999 18.3373 82.3017 18.1827C82.2722 18.1594 82.2422 18.1368 82.2116 18.1149C82.0353 17.9892 81.8486 17.8786 81.6537 17.7843C81.5598 17.7385 81.4643 17.6959 81.3675 17.6566C81.0513 17.528 80.7163 17.3994 80.3626 17.2707C80.0156 17.1526 79.6751 17.0161 79.3426 16.8618C79.2965 16.8404 79.2506 16.8186 79.2049 16.7964C78.986 16.6911 78.7764 16.5675 78.5782 16.4271C78.4661 16.3473 78.3586 16.2613 78.2563 16.1693C77.9883 15.9282 77.7766 15.6414 77.6212 15.3091C77.4779 15.0028 77.4006 14.6372 77.3895 14.2124C77.3885 14.176 77.388 14.1396 77.388 14.1032C77.3847 13.7692 77.43 13.4364 77.5224 13.1153C77.6715 12.6059 77.9723 12.154 78.3849 11.82C78.7408 11.5328 79.1517 11.3214 79.5923 11.1986C80.0452 11.0662 80.5593 11 81.1344 11C81.4767 10.999 81.8187 11.0195 82.1584 11.0613C82.4338 11.0953 82.7068 11.1474 82.9754 11.2171C83.4538 11.3425 83.8215 11.4779 84.0785 11.6234C84.1163 11.6447 84.1532 11.6674 84.1893 11.6914ZM94.6405 11.7718L94.1903 13.0581C94.1568 13.036 94.1224 13.0154 94.0872 12.9962C94.0144 12.9562 93.9266 12.9144 93.8238 12.8706C93.8067 12.8633 93.7895 12.8562 93.7722 12.8491C93.59 12.7741 93.3837 12.699 93.1532 12.624C92.9227 12.549 92.6708 12.4873 92.3975 12.4391C92.1242 12.3908 91.8481 12.3667 91.5694 12.3667C91.2708 12.3653 90.9727 12.3942 90.6798 12.4529C90.4389 12.5017 90.2036 12.5752 89.9777 12.6722C89.506 12.8759 89.104 13.1707 88.7718 13.5565C88.537 13.8318 88.3433 14.1395 88.1966 14.4701C88.1245 14.6309 88.0615 14.7956 88.008 14.9634C87.8997 15.3067 87.8255 15.6598 87.7865 16.0176C87.7567 16.2842 87.7421 16.5523 87.7427 16.8205C87.7416 17.1675 87.7649 17.5142 87.8125 17.8579C87.8492 18.1212 87.9037 18.3816 87.9759 18.6374C88.0579 18.9313 88.1705 19.2157 88.3119 19.4861C88.4155 19.683 88.5372 19.8699 88.6753 20.0443C88.9861 20.4356 89.3747 20.7384 89.841 20.9528C90.1232 21.0805 90.4215 21.1694 90.7276 21.2171C90.9741 21.2562 91.2234 21.2753 91.473 21.2743C91.7155 21.275 91.9579 21.2652 92.1996 21.2452C92.6028 21.2107 92.9555 21.1454 93.2577 21.0492C93.6465 20.9255 93.9552 20.8128 94.1837 20.7109C94.2292 20.6907 94.2743 20.6695 94.3189 20.6473L94.7209 21.9336C94.6991 21.9488 94.6766 21.963 94.6535 21.9762C94.6009 22.0066 94.5332 22.0404 94.4506 22.0776C94.407 22.0972 94.3631 22.1162 94.3189 22.1345C94.2407 22.1668 94.1615 22.1966 94.0814 22.2238C93.9931 22.254 93.8975 22.2839 93.7947 22.3133C93.7285 22.3323 93.6621 22.3504 93.5954 22.3677C93.4604 22.4024 93.3245 22.4332 93.1878 22.46C93.0479 22.4876 92.8994 22.5134 92.7424 22.5373C92.6891 22.5454 92.6358 22.5532 92.5824 22.5606C92.3365 22.5942 92.0891 22.6169 91.8412 22.6286C91.6703 22.637 91.4993 22.6411 91.3283 22.641C90.8902 22.6431 90.4532 22.5987 90.0246 22.5085C89.7397 22.4477 89.4604 22.363 89.1898 22.2551C88.5467 21.9979 87.9946 21.6227 87.5337 21.1296C87.0728 20.6365 86.7164 20.0282 86.4645 19.3047C86.322 18.8888 86.2214 18.4597 86.1643 18.0239C86.1113 17.625 86.0853 17.2229 86.0866 16.8205C86.0866 15.888 86.2286 15.0599 86.5127 14.3364C86.6676 13.936 86.8661 13.5539 87.1047 13.197C87.2695 12.9522 87.4562 12.7227 87.6623 12.5114C88.1447 12.0184 88.7074 11.6432 89.3506 11.3859C89.9937 11.1287 90.6798 11 91.4087 11C91.8696 11 92.2849 11.0322 92.6548 11.0965C92.808 11.1229 92.9606 11.1531 93.1124 11.187C93.2506 11.2181 93.3803 11.2511 93.5013 11.2861C93.5408 11.2975 93.5802 11.3093 93.6195 11.3216C93.8162 11.3834 93.9865 11.445 94.1305 11.5067C94.1833 11.5292 94.2354 11.5533 94.2867 11.5789C94.4583 11.6646 94.5762 11.7289 94.6405 11.7718ZM63.5121 22.3998H61.8078C61.6008 22.0074 61.3833 21.6207 61.1553 21.2401C61.1397 21.214 61.124 21.1879 61.1083 21.1618C60.8938 20.8054 60.6713 20.4538 60.4409 20.1075C60.409 20.0595 60.3769 20.0117 60.3446 19.9639C60.0873 19.5834 59.8328 19.227 59.5809 18.8947C59.3643 18.6091 59.1657 18.3552 58.9848 18.1329C58.9558 18.0973 58.9267 18.0618 58.8975 18.0264C58.7582 18.0371 58.6161 18.0425 58.4714 18.0425H58.0293H56.6304V22.3998H55.0708V11.4181C55.3237 11.357 55.5796 11.3087 55.8374 11.2734C56.0714 11.2411 56.3064 11.217 56.542 11.201C57.0833 11.1635 57.5791 11.1447 58.0293 11.1447C59.0162 11.1447 59.8549 11.262 60.5456 11.4964C60.9237 11.6204 61.2814 11.7999 61.6068 12.0291C61.934 12.2623 62.2087 12.5615 62.4131 12.9075C62.6175 13.2535 62.747 13.6385 62.7934 14.0376C62.823 14.2458 62.8375 14.4558 62.8368 14.666C62.8394 14.9935 62.796 15.3199 62.7078 15.6354C62.6129 15.9699 62.4577 16.2844 62.2499 16.5633C62.0006 16.8929 61.6873 17.1687 61.3286 17.3741C61.0727 17.5223 60.8022 17.6439 60.5215 17.737C60.6749 17.9288 60.8647 18.1741 61.0911 18.4731C61.1183 18.5091 61.1455 18.5451 61.1727 18.5811C61.4353 18.9295 61.7059 19.3154 61.9846 19.7388C62.2618 20.1604 62.5294 20.5883 62.7871 21.0221C62.7956 21.0365 62.8042 21.0509 62.8127 21.0653C62.9772 21.3419 63.1324 21.6238 63.2782 21.9107C63.3598 22.072 63.4378 22.235 63.5121 22.3998ZM53.5594 22.3998H51.855C51.6728 21.9175 51.5013 21.4432 51.3405 20.9769C51.1797 20.5106 51.0136 20.0363 50.8421 19.5539H45.7934L44.7804 22.3998H43.1565C43.5852 21.2207 43.9872 20.1301 44.3624 19.1278C44.7375 18.1256 45.1047 17.1743 45.4638 16.2739C45.8228 15.3734 46.1793 14.5132 46.533 13.6932C46.8867 12.8732 47.2565 12.0612 47.6424 11.2573H49.0734C49.4593 12.0612 49.8291 12.8732 50.1829 13.6932C50.5366 14.5132 50.893 15.3734 51.2521 16.2739C51.6112 17.1743 51.9783 18.1256 52.3535 19.1278C52.7286 20.1301 53.1306 21.2207 53.5594 22.3998ZM106.008 22.3998H104.304C104.122 21.9175 103.95 21.4432 103.789 20.9769C103.628 20.5106 103.462 20.0363 103.291 19.5539H98.2421L97.2292 22.3998H95.6052C96.034 21.2207 96.4359 20.1301 96.8111 19.1278C97.1863 18.1256 97.5534 17.1743 97.9125 16.2739C98.2716 15.3734 98.628 14.5132 98.9817 13.6932C99.3355 12.8732 99.7053 12.0612 100.091 11.2573H101.522C101.908 12.0612 102.278 12.8732 102.632 13.6932C102.985 14.5132 103.342 15.3734 103.701 16.2739C104.06 17.1743 104.427 18.1256 104.802 19.1278C105.177 20.1301 105.579 21.2207 106.008 22.3998ZM64.0588 11.2573H72.6287V12.6079H69.1236V22.3998H67.5639V12.6079H64.0588V11.2573ZM56.6304 12.5597V16.7562H57.7398C58.2715 16.7562 58.7504 16.7298 59.1766 16.6771C59.1801 16.6767 59.1835 16.6762 59.1869 16.6758C59.3517 16.6558 59.5151 16.626 59.6764 16.5866C59.843 16.5452 59.9964 16.4943 60.1365 16.434C60.1824 16.4142 60.2277 16.393 60.2722 16.3703C60.567 16.2203 60.7948 16.0086 60.9556 15.7352C61.0825 15.5195 61.1593 15.2488 61.186 14.9229C61.1933 14.8321 61.1969 14.741 61.1968 14.6499C61.1968 14.2895 61.1371 13.9809 61.0177 13.7241C60.9987 13.6834 60.978 13.6436 60.9556 13.6048C60.7948 13.3261 60.5777 13.1063 60.3044 12.9456C60.1347 12.8468 59.9542 12.7678 59.7666 12.7102C59.6267 12.6668 59.4841 12.6326 59.3397 12.6079C59.0761 12.5626 58.81 12.5335 58.5428 12.5208C58.4146 12.5145 58.2863 12.5113 58.1579 12.5114C57.4933 12.5114 56.9841 12.5275 56.6304 12.5597ZM46.2436 18.2676H50.3919C50.0791 17.4168 49.7599 16.5684 49.4342 15.7225C49.4131 15.6678 49.392 15.6131 49.3709 15.5583C49.0332 14.6847 48.6822 13.846 48.3177 13.042C47.9392 13.8552 47.5879 14.6807 47.2644 15.5173C47.2591 15.531 47.2538 15.5447 47.2485 15.5583C46.9127 16.4281 46.5881 17.3022 46.2748 18.1803C46.2644 18.2094 46.254 18.2385 46.2436 18.2676ZM98.6923 18.2676H102.841C102.528 17.4168 102.209 16.5684 101.883 15.7225C101.862 15.6678 101.841 15.6131 101.82 15.5583C101.482 14.6847 101.131 13.846 100.766 13.042C100.388 13.8552 100.037 14.6807 99.7132 15.5173C99.7078 15.531 99.7025 15.5447 99.6972 15.5583C99.3614 16.4281 99.0368 17.3022 98.7235 18.1803C98.7131 18.2094 98.7027 18.2385 98.6923 18.2676Z" fill="white" stroke="white" stroke-width="0.872568" stroke-linecap="round"/>
</svg>
