<svg width="133" height="128" viewBox="0 0 133 128" fill="none" xmlns="http://www.w3.org/2000/svg">
<path d="M85.5706 108.424C110.15 97.8813 121.528 69.4092 110.985 44.8301C100.442 20.251 71.9698 8.8725 47.3907 19.4156C22.8116 29.9586 11.4331 58.4308 21.9762 83.0099C32.5193 107.589 60.9914 118.967 85.5706 108.424Z" fill="#F2CD88"/>
<path d="M84.0077 104.836C106.611 95.1674 117.096 69.0058 107.426 46.4029C97.7574 23.8 71.5958 13.3151 48.9929 22.9841C26.39 32.6531 15.9051 58.8147 25.5741 81.4176C35.2432 104.021 61.4048 114.506 84.0077 104.836Z" fill="#7771D3"/>
<path d="M57.8411 33.436H44.4301V46.847H57.8411V33.436ZM55.2741 44.28H46.9961V36.002H55.2741V44.28Z" fill="white"/>
<path d="M53.5291 37.748H48.7421V42.535H53.5291V37.748Z" fill="white"/>
<path d="M65.022 36.151V33.192H62.064H59.105V36.151V39.11H62.064V36.151H65.022Z" fill="white"/>
<path d="M47.26 47.986H44.301V50.945H47.26V47.986Z" fill="white"/>
<path d="M75.28 33.436V46.847H88.691V33.436H75.28ZM86.125 44.28H77.847V36.002H86.125V44.28Z" fill="white"/>
<path d="M84.379 37.748H79.592V42.535H84.379V37.748Z" fill="white"/>
<path d="M44.4301 77.341H57.8411V63.93H44.4301V77.341ZM46.9961 66.496H55.2741V74.774H46.9961V66.496Z" fill="white"/>
<path d="M53.5291 68.242H48.7421V73.029H53.5291V68.242Z" fill="white"/>
<path d="M85.733 50.944H82.774V47.985H79.815H76.856V50.944H73.897V53.903H76.856V56.784H73.897V53.903H70.938H67.979V50.944H65.021V47.985H67.979V50.944H70.938H73.897V47.985V45.026V42.067V39.108V36.149H70.938V33.19H67.979V36.149H65.021V39.108H62.062V42.067H65.021V45.026H62.062V42.067H59.103V45.026V47.985H56.31V50.944H53.307V47.985H50.304V50.944H47.301V53.903H44.298V56.784V56.861V59.743H47.301V56.861H50.304V59.743H53.313V62.702H56.31H59.103V65.584V65.661V68.543H62.062V71.425H59.103V74.384V77.343H62.062V74.384H65.021V77.343H67.979V74.384H70.938V71.425H73.897V74.384H70.938V77.343H73.897H76.856V74.384V71.425H79.815H82.774V68.543H85.733V71.425H82.774V74.384H79.815V77.343H82.774H85.733V74.384H88.692V71.425V68.543V68.466V65.661V65.584V62.702V59.743H85.733H82.774V62.702H85.733V65.584H82.774V62.702H79.815V59.743H82.774V56.784H79.815V53.903H82.774H85.733V56.862H88.692V53.903V50.944V47.985H85.733V50.944ZM67.981 42.068V39.109H70.94V42.068V45.027H67.981V42.068ZM53.309 56.784V53.903H56.312V56.784H53.309ZM59.105 59.743H56.312V56.861H59.105V59.743ZM59.314 53.903V50.944H62.064V53.903H65.023V56.784H62.064V53.903H59.314ZM67.981 68.465H65.023H62.064V65.66H65.023H67.981V68.465ZM67.981 62.702H65.023V59.743H67.981V62.702ZM70.94 56.862H73.899V59.744H70.94V56.862ZM73.898 65.583H70.939V62.701H73.898H76.857V65.583H73.898ZM79.815 68.465H76.856V65.66H79.815V68.465Z" fill="white"/>
<path d="M50.306 59.743H47.303V62.702H50.306V59.743Z" fill="white"/>
<path d="M122.968 101.809C121.772 100.261 121.772 97.728 122.968 96.18L131.541 85.082C132.737 83.534 132.102 82.267 130.129 82.267H2.86303C0.891026 82.267 0.255027 83.534 1.45103 85.082L10.024 96.18C11.22 97.728 11.22 100.261 10.024 101.809L1.45103 112.907C0.255027 114.455 0.891026 115.722 2.86303 115.722H130.13C132.103 115.722 132.738 114.455 131.542 112.907L122.968 101.809Z" fill="#F29C50"/>
<path d="M10.024 101.809L1.45103 112.907C0.255027 114.455 0.891026 115.722 2.86303 115.722H130.13C132.103 115.722 132.738 114.455 131.542 112.907L122.969 101.809C122.371 101.035 122.072 100.015 122.072 98.995H10.921C10.921 100.014 10.622 101.035 10.024 101.809Z" fill="#F27825"/>
<path fill-rule="evenodd" clip-rule="evenodd" d="M36.6607 102.856H35.4065C35.3106 102.626 35.1868 102.34 35.0353 101.999C35.017 101.958 34.9987 101.917 34.9804 101.875C34.8036 101.479 34.6133 101.05 34.4096 100.589C34.2258 100.173 34.0374 99.7599 33.8443 99.3484C33.8158 99.2876 33.7872 99.2269 33.7585 99.1662C33.528 98.6785 33.3109 98.2176 33.1073 97.7835C32.9036 97.3493 32.7133 96.9608 32.5365 96.6177C32.4948 96.5368 32.4528 96.456 32.4104 96.3754C32.3188 96.2016 32.2387 96.0542 32.1702 95.9334C32.1505 95.8988 32.1306 95.8642 32.1104 95.8299C31.9925 97.0947 31.896 98.4641 31.821 99.938C31.7459 101.412 31.6816 102.899 31.628 104.4H30.1005C30.1434 103.435 30.1917 102.462 30.2453 101.482C30.2989 100.501 30.3605 99.536 30.4302 98.5874C30.4998 97.6387 30.5749 96.7142 30.6553 95.8138C30.7357 94.9134 30.8241 94.0612 30.9206 93.2573H32.2873C32.5359 93.6626 32.8005 94.1312 33.0809 94.6632C33.1276 94.7518 33.1739 94.8405 33.2198 94.9295C33.5521 95.5726 33.8844 96.2453 34.2167 96.9474C34.549 97.6495 34.8706 98.3516 35.1814 99.0537C35.4923 99.7558 35.7763 100.396 36.0336 100.975C36.2909 100.396 36.5749 99.7558 36.8858 99.0537C37.1966 98.3516 37.5182 97.6495 37.8505 96.9474C38.1828 96.2453 38.5151 95.5726 38.8474 94.9295C38.985 94.6626 39.1263 94.3976 39.2712 94.1345C39.4475 93.815 39.6171 93.5226 39.7799 93.2573H41.1466C41.4723 96.4874 41.7215 99.7247 41.894 102.967C41.9197 103.444 41.9439 103.922 41.9666 104.4H40.4392C40.3856 102.899 40.3212 101.412 40.2462 99.938C40.1712 98.4641 40.0747 97.0947 39.9568 95.8299C39.9273 95.8801 39.8983 95.9307 39.8698 95.9815C39.7764 96.1484 39.6634 96.3605 39.5307 96.6177C39.4378 96.7982 39.3467 96.9795 39.2575 97.1618C39.1617 97.3575 39.0625 97.5647 38.9599 97.7835C38.7563 98.2176 38.5392 98.6785 38.3087 99.1662C38.1128 99.5806 37.9214 99.9971 37.7346 100.416C37.7088 100.473 37.6831 100.531 37.6575 100.589C37.4539 101.05 37.2636 101.479 37.0867 101.875C36.9285 102.23 36.7982 102.529 36.6957 102.773C36.684 102.8 36.6723 102.828 36.6607 102.856ZM116.459 104.4H115.157C114.937 104.029 114.686 103.617 114.405 103.163C114.385 103.13 114.365 103.098 114.345 103.065C114.039 102.572 113.71 102.06 113.356 101.53C113.002 100.999 112.635 100.461 112.255 99.9139C111.874 99.3672 111.496 98.8393 111.121 98.3301C110.746 97.821 110.382 97.3413 110.028 96.8911C109.674 96.4409 109.347 96.0443 109.047 95.7013V104.4H107.52V93.2573H108.758C109.022 93.5394 109.281 93.8272 109.533 94.1202C109.804 94.4345 110.085 94.7713 110.373 95.1305C110.947 95.8433 111.515 96.5775 112.078 97.3332C112.557 97.976 113.025 98.6271 113.481 99.2862C113.544 99.3773 113.607 99.4687 113.67 99.5601C113.848 99.8206 114.024 100.083 114.198 100.346C114.387 100.634 114.562 100.906 114.722 101.164C114.793 101.277 114.863 101.391 114.932 101.506V93.2573H116.459V104.4ZM28.0586 93.6914L27.5601 94.9616C27.4816 94.9137 27.4004 94.8703 27.3168 94.8317C27.1149 94.7371 26.861 94.6437 26.5552 94.5516C26.3231 94.4829 26.0859 94.433 25.8458 94.4024C25.5837 94.3679 25.303 94.3506 25.0036 94.3506C24.7035 94.3506 24.4248 94.3828 24.1675 94.4471C24.029 94.4811 23.894 94.5277 23.7639 94.5862C23.6695 94.6289 23.5786 94.6792 23.4922 94.7365C23.2993 94.8652 23.1465 95.0286 23.034 95.2269C22.9584 95.3619 22.908 95.5094 22.8851 95.6623C22.8715 95.7497 22.8648 95.838 22.8651 95.9264C22.8651 96.2265 22.9241 96.4784 23.042 96.6821C23.132 96.8358 23.246 96.9741 23.3798 97.0917C23.4312 97.1374 23.4848 97.1804 23.5404 97.2207C23.6669 97.3118 23.7988 97.3951 23.9353 97.4702C24.0505 97.5338 24.1682 97.5927 24.2881 97.6468C24.5722 97.7754 24.8857 97.904 25.2287 98.0327C25.7111 98.2256 26.1532 98.4186 26.5552 98.6115C26.8026 98.7291 27.0391 98.8687 27.2617 99.0284C27.3796 99.1135 27.4926 99.2052 27.6003 99.3029C27.8951 99.5709 28.1229 99.8898 28.2837 100.26C28.3648 100.45 28.4242 100.648 28.4607 100.852C28.4954 101.038 28.516 101.238 28.5226 101.452C28.5241 101.502 28.5248 101.552 28.5248 101.602C28.5283 101.929 28.4817 102.254 28.3867 102.567C28.2245 103.085 27.8976 103.537 27.4556 103.853C27.1213 104.094 26.7484 104.276 26.3529 104.391C25.8081 104.558 25.1707 104.641 24.4408 104.641C24.0014 104.641 23.5967 104.612 23.2269 104.553C23.0565 104.526 22.8868 104.495 22.7178 104.459C22.5579 104.426 22.4074 104.39 22.2662 104.351C22.2568 104.349 22.2474 104.346 22.2381 104.344C22.1345 104.315 22.0316 104.284 21.9293 104.251C21.818 104.215 21.714 104.177 21.6174 104.139C21.5748 104.122 21.5324 104.105 21.4904 104.086C21.3181 104.011 21.1768 103.945 21.0664 103.888C21.0441 103.877 21.022 103.865 21 103.853L21.4663 102.567C21.549 102.613 21.6336 102.656 21.7198 102.695C21.8937 102.775 22.1048 102.86 22.3532 102.95C22.4325 102.978 22.512 103.006 22.5918 103.033C22.8238 103.111 23.0619 103.169 23.3036 103.207C23.539 103.245 23.7917 103.27 24.0619 103.282C24.1881 103.288 24.3145 103.29 24.4408 103.29C24.7293 103.293 25.0174 103.271 25.3023 103.227C26.3573 103.051 26.8848 102.515 26.8848 101.618C26.8856 101.479 26.8722 101.34 26.8448 101.204C26.8122 101.041 26.7524 100.885 26.6677 100.742C26.5375 100.527 26.3692 100.337 26.1709 100.183C26.1414 100.159 26.1114 100.137 26.0809 100.115C25.9045 99.9892 25.7179 99.8786 25.5229 99.7843C25.429 99.7385 25.3336 99.6959 25.2367 99.6566C24.9205 99.528 24.5856 99.3994 24.2318 99.2707C23.8848 99.1526 23.5443 99.0161 23.2118 98.8618C23.1657 98.8404 23.1199 98.8186 23.0742 98.7964C22.8553 98.6911 22.6456 98.5675 22.4474 98.4271C22.3353 98.3473 22.2279 98.2613 22.1255 98.1693C21.8575 97.9282 21.6458 97.6414 21.4904 97.3091C21.3471 97.0028 21.2699 96.6372 21.2587 96.2124C21.2577 96.176 21.2573 96.1396 21.2573 96.1032C21.2539 95.7692 21.2992 95.4364 21.3917 95.1153C21.5407 94.6059 21.8416 94.154 22.2541 93.82C22.6101 93.5328 23.0209 93.3214 23.4615 93.1986C23.9145 93.0662 24.4285 93 25.0036 93C25.3459 92.999 25.6879 93.0195 26.0277 93.0613C26.3031 93.0953 26.576 93.1474 26.8446 93.2171C27.323 93.3425 27.6907 93.4779 27.9478 93.6234C27.9855 93.6447 28.0225 93.6674 28.0586 93.6914ZM84.1893 93.6914L83.6909 94.9616C83.6124 94.9137 83.5311 94.8703 83.4476 94.8317C83.2457 94.7371 82.9918 94.6437 82.686 94.5516C82.4539 94.4829 82.2167 94.433 81.9766 94.4024C81.7145 94.3679 81.4338 94.3506 81.1344 94.3506C80.8342 94.3506 80.5555 94.3828 80.2983 94.4471C80.1598 94.4811 80.0247 94.5277 79.8947 94.5862C79.8002 94.6289 79.7093 94.6792 79.623 94.7365C79.43 94.8652 79.2773 95.0286 79.1647 95.2269C79.0892 95.3619 79.0388 95.5094 79.0158 95.6623C79.0023 95.7497 78.9956 95.838 78.9959 95.9264C78.9959 96.2265 79.0549 96.4784 79.1728 96.6821C79.2628 96.8358 79.3768 96.9741 79.5106 97.0917C79.5619 97.1374 79.6155 97.1804 79.6712 97.2207C79.7976 97.3118 79.9295 97.3951 80.0661 97.4702C80.1813 97.5338 80.299 97.5927 80.4189 97.6468C80.7029 97.7754 81.0165 97.904 81.3595 98.0327C81.8418 98.2256 82.284 98.4186 82.686 98.6115C82.9334 98.7291 83.1699 98.8687 83.3925 99.0284C83.5104 99.1135 83.6234 99.2052 83.7311 99.3029C84.0259 99.5709 84.2536 99.8898 84.4144 100.26C84.4956 100.45 84.555 100.648 84.5915 100.852C84.6262 101.038 84.6468 101.238 84.6534 101.452C84.6549 101.502 84.6556 101.552 84.6556 101.602C84.6591 101.929 84.6125 102.254 84.5175 102.567C84.3553 103.085 84.0284 103.537 83.5864 103.853C83.2521 104.094 82.8792 104.276 82.4837 104.391C81.9388 104.558 81.3015 104.641 80.5716 104.641C80.1321 104.641 79.7275 104.612 79.3577 104.553C79.1873 104.526 79.0175 104.495 78.8486 104.459C78.6887 104.426 78.5381 104.39 78.397 104.351C78.3876 104.349 78.3782 104.346 78.3688 104.344C78.2653 104.315 78.1623 104.284 78.0601 104.251C77.9487 104.215 77.8448 104.177 77.7482 104.139C77.7056 104.122 77.6632 104.105 77.6212 104.086C77.4489 104.011 77.3076 103.945 77.1972 103.888C77.1749 103.877 77.1528 103.865 77.1308 103.853L77.5971 102.567C77.6798 102.613 77.7644 102.656 77.8506 102.695C78.0245 102.775 78.2356 102.86 78.484 102.95C78.5632 102.978 78.6428 103.006 78.7226 103.033C78.9546 103.111 79.1927 103.169 79.4344 103.207C79.6698 103.245 79.9225 103.27 80.1926 103.282C80.3189 103.288 80.4452 103.29 80.5716 103.29C80.86 103.293 81.1482 103.271 81.4331 103.227C82.4881 103.051 83.0156 102.515 83.0156 101.618C83.0164 101.479 83.003 101.34 82.9755 101.204C82.943 101.041 82.8832 100.885 82.7985 100.742C82.6683 100.527 82.4999 100.337 82.3017 100.183C82.2722 100.159 82.2422 100.137 82.2116 100.115C82.0353 99.9892 81.8486 99.8786 81.6537 99.7843C81.5598 99.7385 81.4643 99.6959 81.3675 99.6566C81.0513 99.528 80.7163 99.3994 80.3626 99.2707C80.0156 99.1526 79.6751 99.0161 79.3426 98.8618C79.2965 98.8404 79.2506 98.8186 79.2049 98.7964C78.986 98.6911 78.7764 98.5675 78.5782 98.4271C78.4661 98.3473 78.3586 98.2613 78.2563 98.1693C77.9883 97.9282 77.7766 97.6414 77.6212 97.3091C77.4779 97.0028 77.4006 96.6372 77.3895 96.2124C77.3885 96.176 77.388 96.1396 77.388 96.1032C77.3847 95.7692 77.43 95.4364 77.5224 95.1153C77.6715 94.6059 77.9723 94.154 78.3849 93.82C78.7408 93.5328 79.1517 93.3214 79.5923 93.1986C80.0452 93.0662 80.5593 93 81.1344 93C81.4767 92.999 81.8187 93.0195 82.1584 93.0613C82.4338 93.0953 82.7068 93.1474 82.9754 93.2171C83.4538 93.3425 83.8215 93.4779 84.0785 93.6234C84.1163 93.6447 84.1532 93.6674 84.1893 93.6914ZM94.6405 93.7718L94.1903 95.0581C94.1568 95.036 94.1224 95.0154 94.0872 94.9962C94.0144 94.9562 93.9266 94.9144 93.8238 94.8706C93.8067 94.8633 93.7895 94.8562 93.7722 94.8491C93.59 94.7741 93.3837 94.699 93.1532 94.624C92.9227 94.549 92.6708 94.4873 92.3975 94.4391C92.1242 94.3908 91.8481 94.3667 91.5694 94.3667C91.2708 94.3653 90.9727 94.3942 90.6798 94.4529C90.4389 94.5017 90.2036 94.5752 89.9777 94.6722C89.506 94.8759 89.104 95.1707 88.7718 95.5565C88.537 95.8318 88.3433 96.1395 88.1966 96.4701C88.1245 96.6309 88.0615 96.7956 88.008 96.9634C87.8997 97.3067 87.8255 97.6598 87.7865 98.0176C87.7567 98.2842 87.7421 98.5523 87.7427 98.8205C87.7416 99.1675 87.7649 99.5142 87.8125 99.8579C87.8492 100.121 87.9037 100.382 87.9759 100.637C88.0579 100.931 88.1705 101.216 88.3119 101.486C88.4155 101.683 88.5372 101.87 88.6753 102.044C88.9861 102.436 89.3747 102.738 89.841 102.953C90.1232 103.08 90.4215 103.169 90.7276 103.217C90.9741 103.256 91.2234 103.275 91.473 103.274C91.7155 103.275 91.9579 103.265 92.1996 103.245C92.6028 103.211 92.9555 103.145 93.2577 103.049C93.6465 102.926 93.9552 102.813 94.1837 102.711C94.2292 102.691 94.2743 102.669 94.3189 102.647L94.7209 103.934C94.6991 103.949 94.6766 103.963 94.6535 103.976C94.6009 104.007 94.5332 104.04 94.4506 104.078C94.407 104.097 94.3631 104.116 94.3189 104.135C94.2407 104.167 94.1615 104.197 94.0814 104.224C93.9931 104.254 93.8975 104.284 93.7947 104.313C93.7285 104.332 93.6621 104.35 93.5954 104.368C93.4604 104.402 93.3245 104.433 93.1878 104.46C93.0479 104.488 92.8994 104.513 92.7424 104.537C92.6891 104.545 92.6358 104.553 92.5824 104.561C92.3365 104.594 92.0891 104.617 91.8412 104.629C91.6703 104.637 91.4993 104.641 91.3283 104.641C90.8902 104.643 90.4532 104.599 90.0246 104.509C89.7397 104.448 89.4604 104.363 89.1898 104.255C88.5467 103.998 87.9946 103.623 87.5337 103.13C87.0728 102.637 86.7164 102.028 86.4645 101.305C86.322 100.889 86.2214 100.46 86.1643 100.024C86.1113 99.625 86.0853 99.2229 86.0866 98.8205C86.0866 97.888 86.2286 97.0599 86.5127 96.3364C86.6676 95.936 86.8661 95.5539 87.1047 95.197C87.2695 94.9522 87.4562 94.7227 87.6623 94.5114C88.1447 94.0184 88.7074 93.6432 89.3506 93.3859C89.9937 93.1287 90.6798 93 91.4087 93C91.8696 93 92.2849 93.0322 92.6548 93.0965C92.808 93.1229 92.9606 93.1531 93.1124 93.187C93.2506 93.2181 93.3803 93.2511 93.5013 93.2861C93.5408 93.2975 93.5802 93.3093 93.6195 93.3216C93.8162 93.3834 93.9865 93.445 94.1305 93.5067C94.1833 93.5292 94.2354 93.5533 94.2867 93.5789C94.4583 93.6646 94.5762 93.7289 94.6405 93.7718ZM63.5121 104.4H61.8078C61.6008 104.007 61.3833 103.621 61.1553 103.24C61.1397 103.214 61.124 103.188 61.1083 103.162C60.8938 102.805 60.6713 102.454 60.4409 102.107C60.409 102.06 60.3769 102.012 60.3446 101.964C60.0873 101.583 59.8328 101.227 59.5809 100.895C59.3643 100.609 59.1657 100.355 58.9848 100.133C58.9558 100.097 58.9267 100.062 58.8975 100.026C58.7582 100.037 58.6161 100.043 58.4714 100.043H58.0293H56.6304V104.4H55.0708V93.4181C55.3237 93.357 55.5796 93.3087 55.8374 93.2734C56.0714 93.2411 56.3064 93.217 56.542 93.201C57.0833 93.1635 57.5791 93.1447 58.0293 93.1447C59.0162 93.1447 59.8549 93.262 60.5456 93.4964C60.9237 93.6204 61.2814 93.7999 61.6068 94.0291C61.934 94.2623 62.2087 94.5615 62.4131 94.9075C62.6175 95.2535 62.747 95.6385 62.7934 96.0376C62.823 96.2458 62.8375 96.4558 62.8368 96.666C62.8394 96.9935 62.796 97.3199 62.7078 97.6354C62.6129 97.9699 62.4577 98.2844 62.2499 98.5633C62.0006 98.8929 61.6873 99.1687 61.3286 99.3741C61.0727 99.5223 60.8022 99.6439 60.5215 99.737C60.6749 99.9288 60.8647 100.174 61.0911 100.473C61.1183 100.509 61.1455 100.545 61.1727 100.581C61.4353 100.93 61.7059 101.315 61.9846 101.739C62.2618 102.16 62.5294 102.588 62.7871 103.022C62.7956 103.036 62.8042 103.051 62.8127 103.065C62.9772 103.342 63.1324 103.624 63.2782 103.911C63.3598 104.072 63.4378 104.235 63.5121 104.4ZM53.5594 104.4H51.855C51.6728 103.917 51.5013 103.443 51.3405 102.977C51.1797 102.511 51.0136 102.036 50.8421 101.554H45.7934L44.7804 104.4H43.1565C43.5852 103.221 43.9872 102.13 44.3624 101.128C44.7375 100.126 45.1047 99.1743 45.4638 98.2739C45.8228 97.3734 46.1793 96.5132 46.533 95.6932C46.8867 94.8732 47.2565 94.0612 47.6424 93.2573H49.0734C49.4593 94.0612 49.8291 94.8732 50.1829 95.6932C50.5366 96.5132 50.893 97.3734 51.2521 98.2739C51.6112 99.1743 51.9783 100.126 52.3535 101.128C52.7286 102.13 53.1306 103.221 53.5594 104.4ZM106.008 104.4H104.304C104.122 103.917 103.95 103.443 103.789 102.977C103.628 102.511 103.462 102.036 103.291 101.554H98.2421L97.2292 104.4H95.6052C96.034 103.221 96.4359 102.13 96.8111 101.128C97.1863 100.126 97.5534 99.1743 97.9125 98.2739C98.2716 97.3734 98.628 96.5132 98.9817 95.6932C99.3355 94.8732 99.7053 94.0612 100.091 93.2573H101.522C101.908 94.0612 102.278 94.8732 102.632 95.6932C102.985 96.5132 103.342 97.3734 103.701 98.2739C104.06 99.1743 104.427 100.126 104.802 101.128C105.177 102.13 105.579 103.221 106.008 104.4ZM64.0588 93.2573H72.6287V94.6079H69.1236V104.4H67.5639V94.6079H64.0588V93.2573ZM56.6304 94.5597V98.7562H57.7398C58.2715 98.7562 58.7504 98.7298 59.1766 98.6771C59.1801 98.6767 59.1835 98.6762 59.1869 98.6758C59.3517 98.6558 59.5151 98.626 59.6764 98.5866C59.843 98.5452 59.9964 98.4943 60.1365 98.434C60.1824 98.4142 60.2277 98.393 60.2722 98.3703C60.567 98.2203 60.7948 98.0086 60.9556 97.7352C61.0825 97.5195 61.1593 97.2488 61.186 96.9229C61.1933 96.8321 61.1969 96.741 61.1968 96.6499C61.1968 96.2895 61.1371 95.9809 61.0177 95.7241C60.9987 95.6834 60.978 95.6436 60.9556 95.6048C60.7948 95.3261 60.5777 95.1063 60.3044 94.9456C60.1347 94.8468 59.9542 94.7678 59.7666 94.7102C59.6267 94.6668 59.4841 94.6326 59.3397 94.6079C59.0761 94.5626 58.81 94.5335 58.5428 94.5208C58.4146 94.5145 58.2863 94.5113 58.1579 94.5114C57.4933 94.5114 56.9841 94.5275 56.6304 94.5597ZM46.2436 100.268H50.3919C50.0791 99.4168 49.7599 98.5684 49.4342 97.7225C49.4131 97.6678 49.392 97.6131 49.3709 97.5583C49.0332 96.6847 48.6822 95.846 48.3177 95.042C47.9392 95.8552 47.5879 96.6807 47.2644 97.5173C47.2591 97.531 47.2538 97.5447 47.2485 97.5583C46.9127 98.4281 46.5881 99.3022 46.2748 100.18C46.2644 100.209 46.254 100.239 46.2436 100.268ZM98.6923 100.268H102.841C102.528 99.4168 102.209 98.5684 101.883 97.7225C101.862 97.6678 101.841 97.6131 101.82 97.5583C101.482 96.6847 101.131 95.846 100.766 95.042C100.388 95.8552 100.037 96.6807 99.7132 97.5173C99.7078 97.531 99.7025 97.5447 99.6972 97.5583C99.3614 98.4281 99.0368 99.3022 98.7235 100.18C98.7131 100.209 98.7027 100.239 98.6923 100.268Z" fill="white" stroke="white" stroke-width="0.872568" stroke-linecap="round"/>
</svg>
